<?xml version="1.0" encoding="UTF-8"?>
<svg width="304px" height="220px" viewBox="0 0 304 220" version="1.1" xmlns="http://www.w3.org/2000/svg" xmlns:xlink="http://www.w3.org/1999/xlink">
    <!-- Generator: Sketch 53.2 (72643) - https://sketchapp.com -->
    <title>Group</title>
    <desc>Created with Sketch.</desc>
    <defs>
        <path d="M0,9.9976316 C0,4.47609213 4.48095504,0 9.99722731,0 L264.621798,0 C270.143114,0 274.619026,4.48607807 274.619026,9.9976316 L274.619026,180.002368 C274.619026,185.523908 270.138071,190 264.621798,190 L9.99722731,190 C4.47591113,190 0,185.513922 0,180.002368 L0,9.9976316 Z" id="path-1"></path>
        <filter x="-8.2%" y="-11.8%" width="116.4%" height="123.7%" filterUnits="objectBoundingBox" id="filter-2">
            <feOffset dx="0" dy="0" in="SourceAlpha" result="shadowOffsetOuter1"></feOffset>
            <feGaussianBlur stdDeviation="7.5" in="shadowOffsetOuter1" result="shadowBlurOuter1"></feGaussianBlur>
            <feColorMatrix values="0 0 0 0 0   0 0 0 0 0   0 0 0 0 0  0 0 0 0.202587183 0" type="matrix" in="shadowBlurOuter1"></feColorMatrix>
        </filter>
        <linearGradient x1="100%" y1="50%" x2="0%" y2="50%" id="linearGradient-3">
            <stop stop-color="#919191" offset="0%"></stop>
            <stop stop-color="#707070" offset="100%"></stop>
        </linearGradient>
    </defs>
    <g id="Page-1" stroke="none" stroke-width="1" fill="none" fill-rule="evenodd">
        <g id="Intro-Screen-02-Copy" transform="translate(-35.000000, -74.000000)">
            <g id="Group" transform="translate(50.000000, 89.000000)">
                <g id="Rectangle-11">
                    <use fill="black" fill-opacity="1" filter="url(#filter-2)" xlink:href="#path-1"></use>
                    <use fill="#FFFFFF" fill-rule="evenodd" xlink:href="#path-1"></use>
                </g>
                <g id="Group-2" transform="translate(32.448378, 97.000000)">
                    <rect id="Rectangle-12" stroke="#979797" stroke-width="0.5" fill="#4A4A4A" x="1.66553325" y="4.08393829" width="208.432708" height="1.85934664" rx="0.929673321"></rect>
                    <path d="M8.3366569,3.68647913 L152.028271,3.68647913 L152.028271,6.3407441 L8.33618245,6.3407441 C7.83478668,8.12715497 6.19056402,9.43738657 4.24659975,9.43738657 C1.90126747,9.43738657 0,7.53936514 0,5.19501029 L0,4.83221294 C0,2.48921322 1.90603975,0.589836661 4.24659975,0.589836661 C6.19470033,0.589836661 7.83642095,1.8993656 8.3366569,3.68647913 Z" id="Combined-Shape" fill="#7ED321"></path>
                    <path d="M204.653001,4.72708013 L204.653001,5.00522477 C204.653001,6.6640654 205.998284,8.00771325 207.658728,8.00771325 C209.316449,8.00771325 210.664454,6.66209276 210.664454,5.00522477 L210.664454,4.72708013 C210.664454,3.0682395 209.319172,1.72459165 207.658728,1.72459165 C206.001007,1.72459165 204.653001,3.07021214 204.653001,4.72708013 Z" id="Rectangle" stroke="#979797" stroke-width="0.5" fill="#4A4A4A"></path>
                    <path d="M55.4889034,4.66661391 C55.4889034,2.08931421 57.5855471,0 60.1601631,0 L60.1601631,0 C62.7400286,0 64.8314229,2.08782357 64.8314229,4.66661391 L64.8314229,5.06569099 C64.8314229,7.64299069 62.7347791,9.7323049 60.1601631,9.7323049 L60.1601631,9.7323049 C57.5802976,9.7323049 55.4889034,7.64448133 55.4889034,5.06569099 L55.4889034,4.66661391 Z" id="Rectangle-2" fill="#7ED321"></path>
                    <rect id="Rectangle-2" fill="#7ED321" x="103.617034" y="0" width="9.0594128" height="9.43738657" rx="4.5297064"></rect>
                </g>
                <path d="M121.311064,74.2662814 L121.311064,67.5135445 L118.898825,67.5135445 L118.898825,66.138603 L125.359189,66.138603 L125.359189,67.5135445 L122.952496,67.5135445 L122.952496,74.2662814 L121.311064,74.2662814 Z M125.880455,70.2523393 C125.880455,69.4244134 126.0043,68.7295574 126.251995,68.1677505 C126.436842,67.7537876 126.689154,67.3823353 127.008939,67.0533826 C127.328724,66.7244299 127.679003,66.4804911 128.059788,66.3215589 C128.566268,66.1071852 129.150375,66 129.812127,66 C131.009934,66 131.968351,66.3714523 132.687405,67.1143679 C133.406459,67.8572836 133.765981,68.8903274 133.765981,70.2135304 C133.765981,71.5256452 133.409232,72.5522209 132.695723,73.2932885 C131.982214,74.0343562 131.028419,74.4048844 129.834308,74.4048844 C128.62541,74.4048844 127.664221,74.0362042 126.950712,73.2988327 C126.237204,72.5614612 125.880455,71.5459735 125.880455,70.2523393 Z M127.571795,70.1968981 C127.571795,71.1172264 127.784365,71.8148544 128.209513,72.289803 C128.634661,72.7647516 129.174405,73.0022223 129.828763,73.0022223 C130.483121,73.0022223 131.020093,72.7665996 131.439695,72.2953471 C131.859297,71.8240947 132.069095,71.1172266 132.069095,70.1747216 C132.069095,69.243305 131.864843,68.548449 131.456331,68.0901329 C131.04782,67.6318167 130.505302,67.4026621 129.828763,67.4026621 C129.152224,67.4026621 128.606934,67.6345888 128.192877,68.098449 C127.77882,68.5623093 127.571795,69.2617853 127.571795,70.1968981 Z M135.041417,66.138603 L138.041466,66.138603 C138.718006,66.138603 139.233721,66.1903476 139.588627,66.2938383 C140.065531,66.43429 140.474037,66.6837729 140.814155,67.0422944 C141.154273,67.4008159 141.413055,67.8397209 141.590508,68.3590226 C141.767961,68.8783244 141.856686,69.5186637 141.856686,70.2800599 C141.856686,70.9490536 141.773506,71.5256362 141.607144,72.009825 C141.403812,72.6012006 141.113607,73.0798381 140.73652,73.4457518 C140.451856,73.7229592 140.06738,73.9391776 139.583081,74.0944137 C139.220781,74.2089928 138.73649,74.2662814 138.130192,74.2662814 L135.041417,74.2662814 L135.041417,66.138603 Z M136.682849,67.5135445 L136.682849,72.896884 L137.908377,72.896884 C138.366798,72.896884 138.697668,72.8710117 138.901,72.8192664 C139.167179,72.7527366 139.388068,72.6400073 139.563672,72.4810751 C139.739277,72.3221429 139.882531,72.0606479 139.993439,71.6965823 C140.104347,71.3325166 140.1598,70.836323 140.1598,70.2079863 C140.1598,69.5796497 140.104347,69.0973162 139.993439,68.7609713 C139.882531,68.4246264 139.727262,68.1622074 139.527628,67.9737064 C139.327993,67.7852054 139.074757,67.6576919 138.767911,67.5911622 C138.538701,67.5394168 138.08953,67.5135445 137.420384,67.5135445 L136.682849,67.5135445 Z M150.579564,74.2662814 L148.793953,74.2662814 L148.084144,72.4200898 L144.834553,72.4200898 L144.163563,74.2662814 L142.422314,74.2662814 L145.588725,66.138603 L147.324428,66.138603 L150.579564,74.2662814 Z M147.557333,71.0506924 L146.437167,68.0346917 L145.339183,71.0506924 L147.557333,71.0506924 Z M152.542627,74.2662814 L152.542627,70.84556 L149.56476,66.138603 L151.489006,66.138603 L153.402161,69.354192 L155.276498,66.138603 L157.167472,66.138603 L154.178514,70.8566482 L154.178514,74.2662814 L152.542627,74.2662814 Z" id="TODAY" fill="#9B9B9B"></path>
                <path d="M61.0292508,136.313181 L61.0292508,128.185502 L63.6633049,128.185502 C64.6614777,128.185502 65.3121288,128.226159 65.6152776,128.307473 C66.0810916,128.429444 66.4711125,128.694635 66.7853521,129.103054 C67.0995917,129.511473 67.2567092,130.039083 67.2567092,130.6859 C67.2567092,131.184873 67.1661356,131.604374 66.9849857,131.944415 C66.8038358,132.284456 66.573705,132.551495 66.2945863,132.74554 C66.0154676,132.939585 65.7317319,133.068023 65.4433709,133.130856 C65.0514956,133.208474 64.4840244,133.247283 63.7409402,133.247283 L62.6706824,133.247283 L62.6706824,136.313181 L61.0292508,136.313181 Z M62.6706824,129.560444 L62.6706824,131.866797 L63.5690335,131.866797 C64.2159974,131.866797 64.6485324,131.824293 64.8666517,131.739282 C65.0847709,131.654272 65.2557517,131.521215 65.3795991,131.340106 C65.5034464,131.158997 65.5653692,130.948323 65.5653692,130.708076 C65.5653692,130.412388 65.4784925,130.16845 65.3047365,129.976253 C65.1309805,129.784055 64.911016,129.663934 64.6448366,129.615885 C64.448899,129.578924 64.0551811,129.560444 63.4636713,129.560444 L62.6706824,129.560444 Z M75.0923269,136.313181 L73.3067155,136.313181 L72.5969073,134.466989 L69.3473163,134.466989 L68.6763257,136.313181 L66.9350773,136.313181 L70.1014876,128.185502 L71.8371906,128.185502 L75.0923269,136.313181 Z M72.0700964,133.097592 L70.9499303,130.081591 L69.8519456,133.097592 L72.0700964,133.097592 Z M77.0553904,136.313181 L77.0553904,132.892459 L74.0775229,128.185502 L76.0017688,128.185502 L77.9149238,131.401091 L79.7892613,128.185502 L81.6802348,128.185502 L78.6912766,132.903547 L78.6912766,136.313181 L77.0553904,136.313181 Z M82.4732238,136.313181 L82.4732238,128.185502 L84.9298258,128.185502 L86.4048961,133.729621 L87.8633302,128.185502 L90.3254776,128.185502 L90.3254776,136.313181 L88.8004989,136.313181 L88.8004989,129.915267 L87.1867942,136.313181 L85.6063618,136.313181 L83.9982024,129.915267 L83.9982024,136.313181 L82.4732238,136.313181 Z M91.9558185,136.313181 L91.9558185,128.185502 L97.9836433,128.185502 L97.9836433,129.560444 L93.5972501,129.560444 L93.5972501,131.362282 L97.6786476,131.362282 L97.6786476,132.73168 L93.5972501,132.73168 L93.5972501,134.943783 L98.1389139,134.943783 L98.1389139,136.313181 L91.9558185,136.313181 Z M99.5474396,136.313181 L99.5474396,128.185502 L101.144508,128.185502 L104.471734,133.613195 L104.471734,128.185502 L105.996713,128.185502 L105.996713,136.313181 L104.349736,136.313181 L101.072418,131.013003 L101.072418,136.313181 L99.5474396,136.313181 Z M109.562391,136.313181 L109.562391,129.560444 L107.150152,129.560444 L107.150152,128.185502 L113.610516,128.185502 L113.610516,129.560444 L111.203822,129.560444 L111.203822,136.313181 L109.562391,136.313181 Z M117.819457,128.185502 L120.819506,128.185502 C121.496045,128.185502 122.01176,128.237247 122.366666,128.340737 C122.843571,128.481189 123.252076,128.730672 123.592194,129.089194 C123.932313,129.447715 124.191094,129.88662 124.368547,130.405922 C124.546,130.925224 124.634725,131.565563 124.634725,132.326959 C124.634725,132.995953 124.551545,133.572535 124.385183,134.056724 C124.181852,134.6481 123.891647,135.126737 123.514559,135.492651 C123.229895,135.769858 122.845419,135.986077 122.361121,136.141313 C121.998821,136.255892 121.51453,136.313181 120.908232,136.313181 L117.819457,136.313181 L117.819457,128.185502 Z M119.460889,129.560444 L119.460889,134.943783 L120.686417,134.943783 C121.144837,134.943783 121.475708,134.917911 121.679039,134.866166 C121.945219,134.799636 122.166107,134.686906 122.341712,134.527974 C122.517316,134.369042 122.660571,134.107547 122.771479,133.743481 C122.882387,133.379416 122.93784,132.883222 122.93784,132.254885 C122.93784,131.626549 122.882387,131.144215 122.771479,130.80787 C122.660571,130.471526 122.505302,130.209107 122.305667,130.020606 C122.106032,129.832105 121.852796,129.704591 121.54595,129.638061 C121.31674,129.586316 120.867569,129.560444 120.198424,129.560444 L119.460889,129.560444 Z M126.015524,128.185502 L127.656956,128.185502 L127.656956,132.587533 C127.656956,133.286095 127.677289,133.73886 127.717955,133.945842 C127.788197,134.278491 127.955481,134.54553 128.219812,134.746967 C128.484143,134.948404 128.845513,135.049121 129.303933,135.049121 C129.769747,135.049121 130.12095,134.953948 130.357554,134.763599 C130.594158,134.57325 130.736488,134.339476 130.784548,134.062268 C130.832609,133.785061 130.856638,133.324904 130.856638,132.681783 L130.856638,128.185502 L132.49807,128.185502 L132.49807,132.454474 C132.49807,133.430244 132.453707,134.119555 132.364981,134.52243 C132.276254,134.925305 132.112667,135.265341 131.874215,135.542548 C131.635763,135.819755 131.316907,136.040594 130.917637,136.20507 C130.518368,136.369547 129.997108,136.451784 129.353841,136.451784 C128.577484,136.451784 127.988756,136.362155 127.587639,136.182894 C127.186521,136.003633 126.869513,135.770782 126.636606,135.484335 C126.403699,135.197887 126.250279,134.897584 126.17634,134.583415 C126.069129,134.117707 126.015524,133.430243 126.015524,132.521003 L126.015524,128.185502 Z M134.228228,136.313181 L134.228228,128.185502 L140.256052,128.185502 L140.256052,129.560444 L135.869659,129.560444 L135.869659,131.362282 L139.951057,131.362282 L139.951057,132.73168 L135.869659,132.73168 L135.869659,134.943783 L140.411323,134.943783 L140.411323,136.313181 L134.228228,136.313181 Z" id="PAYMENT-DUE" fill="#F5A623"></path>
                <path d="M66,31.6372629 L68.7378319,31.3711451 C68.9026096,32.2898895 69.2369133,32.9646812 69.7407529,33.3955406 C70.2445925,33.8264 70.9242905,34.0418265 71.7798673,34.0418265 C72.6861448,34.0418265 73.3690116,33.8501603 73.828488,33.4668221 C74.2879644,33.083484 74.5176991,32.6352068 74.5176991,32.1219773 C74.5176991,31.7924965 74.4210521,31.5121253 74.2277551,31.2808552 C74.0344582,31.0495851 73.6969857,30.8484148 73.2153277,30.6773383 C72.8857722,30.5632872 72.1347772,30.3605329 70.9623202,30.0690692 C69.4539702,29.6952353 68.3956059,29.23587 67.7871958,28.6909596 C66.9316191,27.9242833 66.5038371,26.9897126 66.5038371,25.8872194 C66.5038371,25.1775687 66.7050531,24.513865 67.107491,23.8960887 C67.509929,23.2783123 68.0898112,22.807859 68.847155,22.4847144 C69.6044989,22.1615699 70.5186847,22 71.58974,22 C73.3389191,22 74.6555369,22.3833324 75.5396329,23.1500087 C76.4237288,23.916685 76.8879515,24.9399607 76.9323147,26.2198666 L74.118432,26.3434212 C73.9980175,25.6274343 73.7397639,25.1126284 73.3436636,24.7989881 C72.9475632,24.4853478 72.3534216,24.32853 71.561221,24.32853 C70.7436699,24.32853 70.1035813,24.4964359 69.6409361,24.8322528 C69.3430687,25.0476825 69.1941372,25.3359738 69.1941372,25.6971354 C69.1941372,26.0266161 69.3335624,26.3085713 69.612417,26.5430095 C69.9673229,26.8408094 70.8292244,27.151277 72.1981471,27.4744215 C73.5670699,27.7975661 74.5794872,28.1317939 75.2354293,28.477115 C75.8913715,28.8224362 76.4047098,29.2944736 76.7754598,29.8932414 C77.1462097,30.4920093 77.3315819,31.2317458 77.3315819,32.1124731 C77.3315819,32.9108302 77.109769,33.6584868 76.6661366,34.3554652 C76.2225042,35.0524437 75.5950907,35.5704176 74.7838772,35.9094026 C73.9726637,36.2483875 72.9618308,36.4178775 71.7513482,36.4178775 C69.9894939,36.4178775 68.6364354,36.0107848 67.6921322,35.1965873 C66.747829,34.3823897 66.1837906,33.1959601 66,31.6372629 Z M81.6759887,29.1566656 L79.2518667,28.7194722 C79.5243837,27.7437024 79.9933595,27.0213901 80.6588081,26.5525137 C81.3242566,26.0836373 82.3129083,25.8492026 83.6247926,25.8492026 C84.8162624,25.8492026 85.7035139,25.9901802 86.2865736,26.2721397 C86.8696333,26.5540992 87.2799871,26.9120873 87.5176473,27.3461148 C87.7553075,27.7801422 87.8741358,28.5769034 87.8741358,29.7364221 L87.8456167,32.853801 C87.8456167,33.7408644 87.8883949,34.3950639 87.9739526,34.8164191 C88.0595102,35.2377743 88.2195324,35.6892194 88.4540238,36.1707682 L85.8112555,36.1707682 C85.7415419,35.9933555 85.6559855,35.7304085 85.5545838,35.3819192 C85.5102206,35.223515 85.478533,35.1189698 85.4595202,35.0682805 C85.0032126,35.5118122 84.5152243,35.8444561 83.9955407,36.0662219 C83.475857,36.2879878 82.9213248,36.3988691 82.3319275,36.3988691 C81.2925603,36.3988691 80.473437,36.1169138 79.8745333,35.5529949 C79.2756296,34.989076 78.9761822,34.2762678 78.9761822,33.414549 C78.9761822,32.8442939 79.1124387,32.3358241 79.3849558,31.8891243 C79.6574728,31.4424244 80.0393078,31.1002765 80.5304722,30.8626702 C81.0216366,30.6250639 81.7298534,30.4175576 82.6551438,30.2401449 C83.9036521,30.0057067 84.7687222,29.7871122 85.2503803,29.5843548 L85.2503803,29.3182371 C85.2503803,28.8050075 85.12363,28.4390993 84.8701258,28.2205015 C84.6166216,28.0019037 84.1381396,27.8926065 83.4346654,27.8926065 C82.959345,27.8926065 82.5886006,27.9860636 82.3224212,28.1729805 C82.0562418,28.3598974 81.8407664,28.6877892 81.6759887,29.1566656 Z M85.2503803,31.3236241 C84.9081496,31.4376751 84.3662924,31.5739007 83.6247926,31.7323049 C82.8832928,31.8907091 82.3984732,32.0459429 82.1703194,32.1980109 C81.8217511,32.4451214 81.6474696,32.758757 81.6474696,33.1389271 C81.6474696,33.512761 81.7868948,33.8359007 82.0657494,34.1083559 C82.3446041,34.3808111 82.6995047,34.5170367 83.1304618,34.5170367 C83.6121198,34.5170367 84.0715894,34.3586349 84.5088841,34.0418265 C84.832102,33.8010521 85.0444086,33.5064247 85.1458103,33.1579355 C85.2155239,32.9298335 85.2503803,32.4958125 85.2503803,31.8558596 L85.2503803,31.3236241 Z M90.3077641,26.0773035 L92.7699115,26.0773035 L92.7699115,27.4554131 C93.6508387,26.3846008 94.6996966,25.8492026 95.9165169,25.8492026 C96.5629526,25.8492026 97.1238223,25.9822601 97.5991427,26.2483792 C98.0744631,26.5144982 98.46422,26.9168388 98.7684251,27.4554131 C99.2120574,26.9168388 99.6905395,26.5144982 100.203886,26.2483792 C100.717232,25.9822601 101.265426,25.8492026 101.848486,25.8492026 C102.589986,25.8492026 103.217399,25.9996843 103.730745,26.3006523 C104.244091,26.6016203 104.627511,27.0435613 104.881015,27.6264888 C105.064805,28.0573482 105.156699,28.7543162 105.156699,29.7174137 L105.156699,36.1707682 L102.485412,36.1707682 L102.485412,30.4017163 C102.485412,29.4006018 102.393518,28.7543224 102.209728,28.4628587 C101.962561,28.0826887 101.58231,27.8926065 101.068964,27.8926065 C100.695046,27.8926065 100.343314,28.0066558 100.013758,28.2347578 C99.6842028,28.4628599 99.4465462,28.7970877 99.3007812,29.2374513 C99.1550163,29.677815 99.082135,30.373199 99.082135,31.3236241 L99.082135,36.1707682 L96.4108476,36.1707682 L96.4108476,30.6393214 C96.4108476,29.6572154 96.3633163,29.0236082 96.2682522,28.7384806 C96.1731881,28.4533531 96.025841,28.2410947 95.8262064,28.101699 C95.6265719,27.9623033 95.3556433,27.8926065 95.0134126,27.8926065 C94.6014683,27.8926065 94.2307239,28.0034878 93.9011684,28.2252536 C93.5716129,28.4470195 93.3355407,28.7669912 93.1929446,29.1851782 C93.0503484,29.6033653 92.9790514,30.2971652 92.9790514,31.2665989 L92.9790514,36.1707682 L90.3077641,36.1707682 L90.3077641,26.0773035 Z M107.742429,26.0773035 L110.233096,26.0773035 L110.233096,27.5599593 C110.556314,27.0530659 110.993602,26.6412212 111.544974,26.3244128 C112.096345,26.0076044 112.707915,25.8492026 113.379701,25.8492026 C114.552158,25.8492026 115.547147,26.3085679 116.364699,27.2273122 C117.18225,28.1460565 117.591019,29.4259432 117.591019,31.0670106 C117.591019,32.7524312 117.179081,34.0624142 116.355192,34.996999 C115.531303,35.9315837 114.533146,36.3988691 113.360689,36.3988691 C112.802979,36.3988691 112.297563,36.2879878 111.844424,36.0662219 C111.391285,35.8444561 110.914388,35.4642917 110.413717,34.9257174 L110.413717,40.0104666 L107.742429,40.0104666 L107.742429,26.0773035 Z M110.385198,30.9529602 C110.385198,32.0871342 110.610179,32.9250798 111.060149,33.4668221 C111.510119,34.0085645 112.058314,34.2794316 112.70475,34.2794316 C113.325835,34.2794316 113.842342,34.0307407 114.254287,33.5333516 C114.666231,33.0359624 114.8722,32.220193 114.8722,31.086019 C114.8722,30.027879 114.659893,29.242206 114.235274,28.7289764 C113.810654,28.2157469 113.284641,27.9591359 112.657218,27.9591359 C112.004445,27.9591359 111.462587,28.2109948 111.03163,28.7147201 C110.600673,29.2184455 110.385198,29.964518 110.385198,30.9529602 Z M119.710937,36.1707682 L119.710937,22.2376051 L122.382225,22.2376051 L122.382225,36.1707682 L119.710937,36.1707682 Z M130.966468,32.9583472 L133.628249,33.4050448 C133.286019,34.3808146 132.745746,35.1237191 132.007415,35.6337806 C131.269084,36.1438421 130.345392,36.3988691 129.236311,36.3988691 C127.480794,36.3988691 126.181605,35.8254545 125.338703,34.6786081 C124.673254,33.7598638 124.340535,32.6003625 124.340535,31.2000695 C124.340535,29.5273212 124.777823,28.2173382 125.652413,27.2700811 C126.527002,26.3228241 127.632898,25.8492026 128.970133,25.8492026 C130.472145,25.8492026 131.65726,26.3450003 132.525512,27.3366105 C133.393764,28.3282208 133.80887,29.8472942 133.770845,31.8938764 L127.078367,31.8938764 C127.09738,32.6858973 127.312855,33.3020804 127.7248,33.742444 C128.136744,34.1828077 128.650082,34.4029862 129.26483,34.4029862 C129.683112,34.4029862 130.034844,34.2889369 130.320036,34.0608349 C130.605228,33.8327328 130.820704,33.4652406 130.966468,32.9583472 Z M131.11857,30.2591533 C131.099557,29.4861408 130.899926,28.8984701 130.51967,28.4961234 C130.139413,28.0937768 129.676775,27.8926065 129.131741,27.8926065 C128.548681,27.8926065 128.06703,28.1048649 127.686774,28.5293882 C127.306518,28.9539114 127.119561,29.530494 127.125899,30.2591533 L131.11857,30.2591533 Z M141.38544,36.1707682 L141.38544,22.2376051 L147.307902,22.2376051 C148.79724,22.2376051 149.87937,22.3627425 150.554325,22.6130212 C151.22928,22.8632998 151.769552,23.3084089 152.175159,23.9483618 C152.580766,24.5883148 152.783566,25.3201311 152.783566,26.1438329 C152.783566,27.1893006 152.476197,28.0525905 151.861449,28.7337285 C151.246701,29.4148666 150.327762,29.8441355 149.104605,30.0215482 C149.713015,30.3763736 150.215262,30.766042 150.611363,31.1905653 C151.007463,31.6150885 151.541398,32.3690812 152.213184,33.4525658 L153.914823,36.1707682 L150.549571,36.1707682 L148.51521,33.1389271 C147.792723,32.0554424 147.298397,31.3727306 147.032218,31.0907711 C146.766038,30.8088117 146.484019,30.6155615 146.186152,30.5110147 C145.888284,30.4064679 145.41614,30.3541953 144.769704,30.3541953 L144.199322,30.3541953 L144.199322,36.1707682 L141.38544,36.1707682 Z M144.199322,28.1302116 L146.281215,28.1302116 C147.631125,28.1302116 148.474014,28.0731869 148.809907,27.9591359 C149.1458,27.8450849 149.408807,27.6486666 149.598935,27.3698753 C149.789063,27.0910839 149.884126,26.7425999 149.884126,26.3244128 C149.884126,25.8555364 149.75896,25.4769561 149.508625,25.1886604 C149.258289,24.9003648 148.904973,24.7182027 148.448666,24.6421687 C148.220512,24.6104879 147.536061,24.5946477 146.395292,24.5946477 L144.199322,24.5946477 L144.199322,28.1302116 Z M161.26324,32.9583472 L163.925021,33.4050448 C163.58279,34.3808146 163.042517,35.1237191 162.304186,35.6337806 C161.565855,36.1438421 160.642163,36.3988691 159.533082,36.3988691 C157.777565,36.3988691 156.478376,35.8254545 155.635474,34.6786081 C154.970026,33.7598638 154.637306,32.6003625 154.637306,31.2000695 C154.637306,29.5273212 155.074595,28.2173382 155.949184,27.2700811 C156.823774,26.3228241 157.929669,25.8492026 159.266904,25.8492026 C160.768917,25.8492026 161.954031,26.3450003 162.822283,27.3366105 C163.690535,28.3282208 164.105642,29.8472942 164.067616,31.8938764 L157.375138,31.8938764 C157.394151,32.6858973 157.609626,33.3020804 158.021571,33.742444 C158.433515,34.1828077 158.946853,34.4029862 159.561601,34.4029862 C159.979883,34.4029862 160.331615,34.2889369 160.616807,34.0608349 C160.901999,33.8327328 161.117475,33.4652406 161.26324,32.9583472 Z M161.415342,30.2591533 C161.396329,29.4861408 161.196697,28.8984701 160.816441,28.4961234 C160.436184,28.0937768 159.973546,27.8926065 159.428512,27.8926065 C158.845452,27.8926065 158.363802,28.1048649 157.983545,28.5293882 C157.603289,28.9539114 157.416332,29.530494 157.42267,30.2591533 L161.415342,30.2591533 Z M175.047463,29.0616236 L172.414201,29.5368338 C172.325474,29.0109319 172.124258,28.6149273 171.810547,28.3488083 C171.496835,28.0826892 171.08965,27.9496317 170.58898,27.9496317 C169.923531,27.9496317 169.392764,28.1793143 168.996664,28.6386865 C168.600564,29.0980587 168.402517,29.8663075 168.402517,30.943456 C168.402517,32.1409917 168.603733,32.9868574 169.00617,33.4810784 C169.408608,33.9752995 169.948881,34.2224063 170.627005,34.2224063 C171.134013,34.2224063 171.54912,34.0782607 171.872338,33.7899651 C172.195556,33.5016694 172.423706,33.0058718 172.556796,32.3025571 L175.180552,32.7492547 C174.908035,33.9531266 174.38519,34.862353 173.612002,35.4769613 C172.838814,36.0915695 171.802631,36.3988691 170.503422,36.3988691 C169.02676,36.3988691 167.849568,35.9331677 166.971809,35.0017511 C166.094051,34.0703344 165.655178,32.7809436 165.655178,31.13354 C165.655178,29.4671279 166.095635,28.1698171 166.976563,27.2415685 C167.85749,26.3133199 169.048942,25.8492026 170.550954,25.8492026 C171.78045,25.8492026 172.758011,26.1137337 173.483666,26.6428037 C174.209322,27.1718737 174.730582,27.9781389 175.047463,29.0616236 Z M182.918729,32.9583472 L185.58051,33.4050448 C185.23828,34.3808146 184.698007,35.1237191 183.959676,35.6337806 C183.221345,36.1438421 182.297653,36.3988691 181.188572,36.3988691 C179.433055,36.3988691 178.133865,35.8254545 177.290964,34.6786081 C176.625515,33.7598638 176.292796,32.6003625 176.292796,31.2000695 C176.292796,29.5273212 176.730084,28.2173382 177.604674,27.2700811 C178.479263,26.3228241 179.585159,25.8492026 180.922394,25.8492026 C182.424406,25.8492026 183.60952,26.3450003 184.477772,27.3366105 C185.346024,28.3282208 185.761131,29.8472942 185.723106,31.8938764 L179.030628,31.8938764 C179.049641,32.6858973 179.265116,33.3020804 179.67706,33.742444 C180.089005,34.1828077 180.602343,34.4029862 181.217091,34.4029862 C181.635373,34.4029862 181.987104,34.2889369 182.272297,34.0608349 C182.557489,33.8327328 182.772964,33.4652406 182.918729,32.9583472 Z M183.070831,30.2591533 C183.051818,29.4861408 182.852187,28.8984701 182.47193,28.4961234 C182.091674,28.0937768 181.629036,27.8926065 181.084002,27.8926065 C180.500942,27.8926065 180.019291,28.1048649 179.639035,28.5293882 C179.258779,28.9539114 179.071822,29.530494 179.07816,30.2591533 L183.070831,30.2591533 Z M187.900062,24.7086981 L187.900062,22.2376051 L190.57135,22.2376051 L190.57135,24.7086981 L187.900062,24.7086981 Z M187.900062,36.1707682 L187.900062,26.0773035 L190.57135,26.0773035 L190.57135,36.1707682 L187.900062,36.1707682 Z M196.085039,36.1707682 L192.016316,26.0773035 L194.820693,26.0773035 L196.721965,31.2285821 L197.273334,32.948843 C197.419099,32.5116474 197.510993,32.2233561 197.549018,32.0839604 C197.637745,31.7988329 197.732807,31.5137096 197.834209,31.2285821 L199.754494,26.0773035 L202.501832,26.0773035 L198.490148,36.1707682 L196.085039,36.1707682 Z M209.983338,32.9583472 L212.645119,33.4050448 C212.302888,34.3808146 211.762615,35.1237191 211.024284,35.6337806 C210.285953,36.1438421 209.362261,36.3988691 208.25318,36.3988691 C206.497664,36.3988691 205.198474,35.8254545 204.355572,34.6786081 C203.690124,33.7598638 203.357405,32.6003625 203.357405,31.2000695 C203.357405,29.5273212 203.794693,28.2173382 204.669282,27.2700811 C205.543872,26.3228241 206.649767,25.8492026 207.987002,25.8492026 C209.489015,25.8492026 210.674129,26.3450003 211.542381,27.3366105 C212.410633,28.3282208 212.82574,29.8472942 212.787714,31.8938764 L206.095236,31.8938764 C206.114249,32.6858973 206.329725,33.3020804 206.741669,33.742444 C207.153613,34.1828077 207.666952,34.4029862 208.281699,34.4029862 C208.699981,34.4029862 209.051713,34.2889369 209.336905,34.0608349 C209.622098,33.8327328 209.837573,33.4652406 209.983338,32.9583472 Z M210.13544,30.2591533 C210.116427,29.4861408 209.916795,28.8984701 209.536539,28.4961234 C209.156283,28.0937768 208.693644,27.8926065 208.14861,27.8926065 C207.565551,27.8926065 207.0839,28.1048649 206.703644,28.5293882 C206.323387,28.9539114 206.136431,29.530494 206.142768,30.2591533 L210.13544,30.2591533 Z M224.223866,36.1707682 L221.742706,36.1707682 L221.742706,34.6881123 C221.330762,35.2647036 220.844358,35.6939725 220.28348,35.975932 C219.722602,36.2578914 219.156979,36.3988691 218.586594,36.3988691 C217.426813,36.3988691 216.433408,35.9315837 215.60635,34.996999 C214.779293,34.0624142 214.36577,32.7587673 214.36577,31.086019 C214.36577,29.3752538 214.768202,28.0747748 215.573078,27.1845433 C216.377954,26.2943117 217.395124,25.8492026 218.62462,25.8492026 C219.752714,25.8492026 220.72869,26.318072 221.552579,27.2558248 L221.552579,22.2376051 L224.223866,22.2376051 L224.223866,36.1707682 Z M217.094096,30.9054392 C217.094096,31.9825877 217.243027,32.7619246 217.540895,33.2434733 C217.971852,33.9404518 218.573915,34.2889358 219.347103,34.2889358 C219.961851,34.2889358 220.484695,34.0275728 220.915653,33.5048389 C221.34661,32.9821051 221.562085,32.2011842 221.562085,31.1620527 C221.562085,30.002534 221.352947,29.1677564 220.934665,28.6576949 C220.516383,28.1476334 219.980864,27.8926065 219.32809,27.8926065 C218.69433,27.8926065 218.163563,28.1444654 217.735775,28.6481907 C217.307987,29.151916 217.094096,29.9043247 217.094096,30.9054392 Z" id="Sample-Received" fill="#4A4A4A"></path>
                <g id="processing-reporting" transform="translate(12.000000, 15.000000)" fill-rule="nonzero">
                    <g id="XMLID_29_">
                        <g id="Group">
                            <path d="M36.9612268,2.8516171 L36.9612268,8.22558736 C36.9612268,8.80008178 36.5064647,9.26686617 35.9438699,9.26686617 L35.3454535,9.26686617 L35.3454535,26.9406357 C35.3454535,30.2519219 32.7202974,32.9449182 29.4887509,32.9449182 C28.4076022,32.9449182 27.3982193,32.6377361 26.5284424,32.1110855 L2.57510409,32.1110855 C1.56976952,32.1110855 0.676070632,31.5325428 0.249156134,30.6030223 C-0.181684015,29.6735019 -0.0461263941,28.6002045 0.596208178,27.81029 L9.07806691,17.3696543 C9.15780669,17.2699182 9.20172491,17.1462602 9.20172491,17.0226022 L9.20172491,2.7159368 C9.20172491,1.26773978 10.3586877,0.0907806691 11.7749888,0.0907806691 L17.7753457,0.0907806691 C19.1955725,0.0907806691 20.3486097,1.26773978 20.3486097,2.7159368 L20.3486097,16.5118996 C20.3486097,16.6396059 20.3925279,16.7632639 20.4722677,16.8589517 L23.628,20.7447323 L23.628,9.26686617 L22.8301115,9.26686617 C22.2676394,9.26686617 21.8127546,8.80008178 21.8127546,8.22558736 L21.8127546,2.8516171 C21.8127546,2.27712268 22.2675167,1.81033829 22.8301115,1.81033829 L35.9438699,1.81033829 C36.506342,1.81033829 36.9612268,2.27712268 36.9612268,2.8516171 Z M34.9304387,7.18430855 L34.9304387,3.88884758 L23.8434201,3.88884758 L23.8434201,7.18418587 L34.9304387,7.18430855 L34.9304387,7.18430855 Z M33.3146654,26.9406357 L33.3146654,25.0536245 C31.2280595,24.8701004 30.0193271,24.0761375 28.9380558,23.3660855 C27.9844907,22.7396989 27.1307844,22.1852007 25.6586654,22.0255985 L25.6586654,23.2463532 L29.3690186,27.8104126 C30.0113532,28.6003271 30.1470335,29.6735019 29.7160706,30.603145 C29.6762007,30.6908587 29.6243086,30.7746468 29.5764647,30.8584349 C31.6471227,30.8104684 33.3146654,29.0750855 33.3146654,26.9406357 Z M33.3146654,22.9590446 L33.3146654,9.26686617 L25.6586654,9.26686617 L25.6586654,19.9269703 C27.749197,20.1104944 28.958052,20.9044572 30.0352751,21.6145093 C30.9927658,22.2449442 31.8465948,22.7955167 33.3146654,22.9590446 Z M27.8689294,29.7174201 C27.9128476,29.625658 27.9925874,29.378342 27.7971636,29.1388773 L24.3980409,24.9537658 C20.6678141,24.7582193 18.4655242,24.0720892 16.3351227,23.4058327 C14.0970112,22.703632 11.9625613,22.0373755 8.0367881,21.9137175 L2.16818587,29.1388773 C1.97263941,29.3782193 2.05250186,29.625658 2.09237175,29.7174201 C2.13628996,29.8131078 2.27184758,30.0286506 2.57510409,30.0286506 L27.386197,30.0286506 C27.6933792,30.0285279 27.8290595,29.8131078 27.8689294,29.7174201 Z M22.5787472,22.7156543 L18.9004126,18.187539 C18.5174164,17.716829 18.3099703,17.1223383 18.3099703,16.5118996 L18.3099703,2.7159368 C18.3099703,2.41672862 18.0706283,2.17333829 17.7753457,2.17333829 L11.7749888,2.17333829 C11.4797063,2.17333829 11.2403643,2.41672862 11.2403643,2.7159368 L11.2403643,17.0224796 C11.2403643,17.6329182 11.0329182,18.2272862 10.6499219,18.698119 L9.66053532,19.914948 C12.920052,20.1622639 14.9586914,20.7966245 16.933539,21.4150372 C18.6091784,21.9377621 20.2288773,22.440368 22.5787472,22.7156543 Z" id="Shape" fill="#082947"></path>
                            <polygon id="Rectangle-path" fill="#454D5B" points="23.8435428 3.88884758 34.9305613 3.88884758 34.9305613 7.18418587 23.8435428 7.18418587"></polygon>
                            <path d="M33.3146654,25.0536245 L33.3146654,26.9406357 C33.3146654,29.0750855 31.647,30.8104684 29.5764647,30.8584349 C29.6243086,30.7746468 29.6762007,30.6908587 29.7160706,30.603145 C30.1469108,29.6736245 30.0113532,28.6003271 29.3690186,27.8104126 L25.6586654,23.2463532 L25.6586654,22.0255985 C27.1307844,22.1852007 27.9846134,22.7396989 28.9380558,23.3660855 C30.0193271,24.0761375 31.2281822,24.8701004 33.3146654,25.0536245 Z" id="Shape" fill="#AAE1E9"></path>
                            <path d="M33.3146654,9.26686617 L33.3146654,22.9590446 C31.8464721,22.7955167 30.9927658,22.2449442 30.0352751,21.6145093 C28.958052,20.9043346 27.749197,20.1104944 25.6586654,19.9269703 L25.6586654,9.26686617 L33.3146654,9.26686617 Z" id="Shape" fill="#EAEEEF"></path>
                            <path d="M27.7971636,29.1388773 C27.99271,29.3782193 27.9128476,29.625658 27.8689294,29.7174201 C27.8290595,29.8131078 27.6933792,30.0286506 27.386197,30.0286506 L2.57510409,30.0286506 C2.27184758,30.0286506 2.13628996,29.8132305 2.09237175,29.7174201 C2.05250186,29.625658 1.97263941,29.378342 2.16818587,29.1388773 L8.0367881,21.9137175 C11.9625613,22.0373755 14.0968885,22.703632 16.3351227,23.4058327 C18.4655242,24.0720892 20.6678141,24.758342 24.3980409,24.9537658 L27.7971636,29.1388773 Z" id="Shape" fill="#F47C6D"></path>
                            <path d="M18.9004126,18.187539 L22.5787472,22.7156543 C20.2288773,22.440368 18.6091784,21.9376394 16.933539,21.4150372 C14.9586914,20.7966245 12.920052,20.1622639 9.66053532,19.914948 L10.6499219,18.698119 C11.0329182,18.2274089 11.2403643,17.6329182 11.2403643,17.0224796 L11.2403643,2.7159368 C11.2403643,2.41672862 11.4797063,2.17333829 11.7749888,2.17333829 L17.7753457,2.17333829 C18.0706283,2.17333829 18.3099703,2.41672862 18.3099703,2.7159368 L18.3099703,16.5118996 C18.3099703,17.1223383 18.5174164,17.7167063 18.9004126,18.187539 Z" id="Shape" fill="#EAEEEF"></path>
                        </g>
                    </g>
                    <path d="M14.0789777,15.3733383 L14.0789777,2.17333829 L11.7746208,2.17333829 C11.4793383,2.17333829 11.2399963,2.41672862 11.2399963,2.7159368 L11.2399963,17.0224796 C11.2399963,17.6329182 11.0325502,18.2272862 10.6495539,18.698119 L9.66016729,19.914948 C11.0089963,20.0171375 12.1464535,20.1866766 13.1593941,20.3928959 C13.7618587,18.7967509 14.0789777,17.0975576 14.0789777,15.3733383 Z" id="Shape" fill="#C5CBCF"></path>
                    <path d="M2.57510409,30.0285279 L27.386197,30.0285279 C27.6933792,30.0285279 27.8290595,29.8131078 27.8689294,29.7172974 C27.872487,29.7096914 27.8765353,29.7001227 27.8800929,29.6905539 L13.0998959,26.8312082 C11.5004387,26.5220632 10.7360409,24.6795836 11.6472825,23.3287918 C11.8655242,23.0052937 12.0665911,22.6721041 12.2564944,22.3337621 C11.0803941,22.1203048 9.72469517,21.9663457 8.03715613,21.9132268 L2.1685539,29.1383866 C1.97300743,29.3777286 2.05286989,29.6251673 2.09273978,29.7169294 C2.13628996,29.8131078 2.27184758,30.0285279 2.57510409,30.0285279 Z" id="Shape" fill="#EF685E"></path>
                    <path d="M25.6587881,19.9269703 C26.3434461,19.9872045 26.9262825,20.1168736 27.4481487,20.2835911 L27.4481487,9.26686617 L25.6587881,9.26686617 L25.6587881,19.9269703 Z" id="Shape" fill="#C5CBCF"></path>
                    <g id="Group" transform="translate(25.639405, 21.959108)" fill="#92C1CA">
                        <path d="M4.31772491,7.41592193 C4.3345316,7.82958736 4.25945353,8.24938662 4.0767881,8.6439145 C4.03691822,8.73162825 3.98502602,8.81541636 3.93718216,8.89920446 C4.92939033,8.87650929 5.82627881,8.46308922 6.49413011,7.80689219 C5.63502602,7.89190706 4.91417844,7.72273606 4.31772491,7.41592193 Z" id="Shape"></path>
                        <path d="M1.80825279,0.543089219 C1.30233457,0.316137546 0.734710037,0.144144981 0.0188921933,0.0667360595 L0.0188921933,1.28749071 L1.80825279,3.4885539 L1.80825279,0.543089219 Z" id="Shape"></path>
                    </g>
                </g>
                <path d="M19.4377348,172.566577 L16.5319572,164.438899 L18.3120232,164.438899 L20.3693581,170.454268 L22.3601485,164.438899 L24.1013969,164.438899 L21.1900739,172.566577 L19.4377348,172.566577 Z M24.8888404,172.566577 L24.8888404,164.438899 L26.530272,164.438899 L26.530272,172.566577 L24.8888404,172.566577 Z M28.0940683,172.566577 L28.0940683,164.438899 L34.1218931,164.438899 L34.1218931,165.81384 L29.7354999,165.81384 L29.7354999,167.615679 L33.8168974,167.615679 L33.8168974,168.985076 L29.7354999,168.985076 L29.7354999,171.19718 L34.2771637,171.19718 L34.2771637,172.566577 L28.0940683,172.566577 Z M36.8224918,172.566577 L34.8816098,164.438899 L36.561859,164.438899 L37.7873874,170.021827 L39.2735484,164.438899 L41.2255211,164.438899 L42.650683,170.116077 L43.8983928,164.438899 L45.5509152,164.438899 L43.576761,172.566577 L41.8355126,172.566577 L40.2162625,166.490223 L38.6025578,172.566577 L36.8224918,172.566577 Z M49.210864,168.552635 C49.210864,167.724709 49.3347096,167.029853 49.5824043,166.468046 C49.7672511,166.054083 50.0195633,165.682631 50.3393483,165.353678 C50.6591333,165.024726 51.0094128,164.780787 51.3901972,164.621855 C51.8966775,164.407481 52.4807847,164.300296 53.1425364,164.300296 C54.3403438,164.300296 55.2987602,164.671748 56.0178143,165.414664 C56.7368685,166.157579 57.0963902,167.190623 57.0963902,168.513826 C57.0963902,169.825941 56.7396412,170.852517 56.0261324,171.593584 C55.3126237,172.334652 54.3588284,172.70518 53.1647179,172.70518 C51.9558196,172.70518 50.9946306,172.3365 50.2811218,171.599128 C49.5676131,170.861757 49.210864,169.846269 49.210864,168.552635 Z M50.902204,168.497194 C50.902204,169.417522 51.1147747,170.11515 51.5399224,170.590099 C51.9650701,171.065047 52.5048147,171.302518 53.1591725,171.302518 C53.8135302,171.302518 54.3505022,171.066895 54.7701045,170.595643 C55.1897068,170.12439 55.3995048,169.417522 55.3995048,168.475017 C55.3995048,167.543601 55.1952521,166.848745 54.7867406,166.390429 C54.3782292,165.932112 53.8357119,165.702958 53.1591725,165.702958 C52.4826331,165.702958 51.9373432,165.934884 51.5232863,166.398745 C51.1092294,166.862605 50.902204,167.562081 50.902204,168.497194 Z M58.3829176,172.566577 L58.3829176,164.438899 L61.8376875,164.438899 C62.7064676,164.438899 63.3377101,164.511896 63.7314338,164.657891 C64.1251575,164.803887 64.4403166,165.063534 64.6769206,165.43684 C64.9135245,165.810146 65.0318247,166.237039 65.0318247,166.717532 C65.0318247,167.327388 64.852526,167.830974 64.4939231,168.228304 C64.1353203,168.625635 63.5992725,168.876041 62.8857638,168.979532 C63.2406697,169.186514 63.5336475,169.41382 63.7647061,169.661459 C63.9957646,169.909097 64.3072268,170.348926 64.6991021,170.980959 L65.6917246,172.566577 L63.7286611,172.566577 L62.5419504,170.798003 C62.1204997,170.16597 61.8321429,169.767722 61.6768716,169.603246 C61.5216003,169.438769 61.3570891,169.32604 61.183333,169.265054 C61.009577,169.204069 60.7341594,169.173576 60.3570719,169.173576 L60.0243492,169.173576 L60.0243492,172.566577 L58.3829176,172.566577 Z M60.0243492,167.876252 L61.2387868,167.876252 C62.0262343,167.876252 62.5179195,167.842988 62.7138571,167.776458 C62.9097947,167.709929 63.0632153,167.595351 63.1741234,167.432723 C63.2850315,167.270095 63.3404847,167.066812 63.3404847,166.82287 C63.3404847,166.549359 63.2674713,166.32852 63.1214423,166.160348 C62.9754133,165.992175 62.7693122,165.885914 62.5031328,165.841561 C62.3700431,165.82308 61.9707799,165.81384 61.3053313,165.81384 L60.0243492,165.81384 L60.0243492,167.876252 Z M66.5734395,164.438899 L69.5734885,164.438899 C70.2500279,164.438899 70.7657428,164.490643 71.1206487,164.594134 C71.5975535,164.734586 72.0060588,164.984069 72.346177,165.34259 C72.6862952,165.701112 72.9450768,166.140017 73.1225298,166.659318 C73.2999827,167.17862 73.3887079,167.818959 73.3887079,168.580356 C73.3887079,169.249349 73.3055281,169.825932 73.1391659,170.310121 C72.9358344,170.901496 72.6456292,171.380134 72.2685417,171.746048 C71.9838776,172.023255 71.599402,172.239473 71.1151033,172.394709 C70.7528035,172.509288 70.2685121,172.566577 69.6622145,172.566577 L66.5734395,172.566577 L66.5734395,164.438899 Z M68.2148711,165.81384 L68.2148711,171.19718 L69.4403994,171.19718 C69.8988196,171.19718 70.2296904,171.171307 70.4330219,171.119562 C70.6992014,171.053032 70.92009,170.940303 71.0956945,170.781371 C71.271299,170.622439 71.4145531,170.360944 71.5254612,169.996878 C71.6363693,169.632812 71.6918225,169.136619 71.6918225,168.508282 C71.6918225,167.879945 71.6363693,167.397612 71.5254612,167.061267 C71.4145531,166.724922 71.2592841,166.462503 71.0596495,166.274002 C70.860015,166.085501 70.6067786,165.957988 70.2999329,165.891458 C70.0707228,165.839712 69.6215518,165.81384 68.9524063,165.81384 L68.2148711,165.81384 Z M74.7805975,172.566577 L74.7805975,164.438899 L80.8084223,164.438899 L80.8084223,165.81384 L76.4220291,165.81384 L76.4220291,167.615679 L80.5034266,167.615679 L80.5034266,168.985076 L76.4220291,168.985076 L76.4220291,171.19718 L80.9636929,171.19718 L80.9636929,172.566577 L74.7805975,172.566577 Z M82.3611279,172.566577 L82.3611279,164.438899 L85.8158978,164.438899 C86.6846779,164.438899 87.3159203,164.511896 87.7096441,164.657891 C88.1033678,164.803887 88.4185269,165.063534 88.6551308,165.43684 C88.8917348,165.810146 89.010035,166.237039 89.010035,166.717532 C89.010035,167.327388 88.8307362,167.830974 88.4721334,168.228304 C88.1135306,168.625635 87.5774828,168.876041 86.8639741,168.979532 C87.21888,169.186514 87.5118578,169.41382 87.7429163,169.661459 C87.9739749,169.909097 88.2854371,170.348926 88.6773124,170.980959 L89.6699348,172.566577 L87.7068714,172.566577 L86.5201607,170.798003 C86.0987099,170.16597 85.8103532,169.767722 85.6550819,169.603246 C85.4998105,169.438769 85.3352993,169.32604 85.1615433,169.265054 C84.9877873,169.204069 84.7123697,169.173576 84.3352821,169.173576 L84.0025595,169.173576 L84.0025595,172.566577 L82.3611279,172.566577 Z M84.0025595,167.876252 L85.2169971,167.876252 C86.0044446,167.876252 86.4961297,167.842988 86.6920674,167.776458 C86.888005,167.709929 87.0414256,167.595351 87.1523337,167.432723 C87.2632418,167.270095 87.318695,167.066812 87.318695,166.82287 C87.318695,166.549359 87.2456816,166.32852 87.0996526,166.160348 C86.9536236,165.992175 86.7475225,165.885914 86.481343,165.841561 C86.3482533,165.82308 85.9489902,165.81384 85.2835416,165.81384 L84.0025595,165.81384 L84.0025595,167.876252 Z" id="VIEW-ORDER" fill="#9B9B9B"></path>
                <path d="M206.341103,172.566577 L206.341103,164.438899 L208.975157,164.438899 C209.97333,164.438899 210.623981,164.479555 210.927129,164.560869 C211.392943,164.682841 211.782964,164.948032 212.097204,165.35645 C212.411444,165.764869 212.568561,166.292479 212.568561,166.939296 C212.568561,167.43827 212.477987,167.85777 212.296838,168.197811 C212.115688,168.537852 211.885557,168.804891 211.606438,168.998937 C211.327319,169.192982 211.043584,169.321419 210.755223,169.384253 C210.363347,169.461871 209.795876,169.500679 209.052792,169.500679 L207.982534,169.500679 L207.982534,172.566577 L206.341103,172.566577 Z M207.982534,165.81384 L207.982534,168.120194 L208.880885,168.120194 C209.527849,168.120194 209.960384,168.077689 210.178504,167.992679 C210.396623,167.907669 210.567604,167.774611 210.691451,167.593502 C210.815298,167.412394 210.877221,167.201719 210.877221,166.961473 C210.877221,166.665785 210.790344,166.421846 210.616588,166.229649 C210.442832,166.037452 210.222868,165.917331 209.956688,165.869281 C209.760751,165.83232 209.367033,165.81384 208.775523,165.81384 L207.982534,165.81384 Z M220.404179,172.566577 L218.618567,172.566577 L217.908759,170.720386 L214.659168,170.720386 L213.988178,172.566577 L212.246929,172.566577 L215.413339,164.438899 L217.149042,164.438899 L220.404179,172.566577 Z M217.381948,169.350988 L216.261782,166.334987 L215.163797,169.350988 L217.381948,169.350988 Z M222.367242,172.566577 L222.367242,169.145856 L219.389375,164.438899 L221.313621,164.438899 L223.226776,167.654488 L225.101113,164.438899 L226.992087,164.438899 L224.003128,169.156944 L224.003128,172.566577 L222.367242,172.566577 Z M230.774034,172.566577 L230.774034,164.438899 L232.371102,164.438899 L235.698329,169.866591 L235.698329,164.438899 L237.223307,164.438899 L237.223307,172.566577 L235.57633,172.566577 L232.299012,167.266399 L232.299012,172.566577 L230.774034,172.566577 Z M238.626288,168.552635 C238.626288,167.724709 238.750133,167.029853 238.997828,166.468046 C239.182675,166.054083 239.434987,165.682631 239.754772,165.353678 C240.074557,165.024726 240.424836,164.780787 240.805621,164.621855 C241.312101,164.407481 241.896208,164.300296 242.55796,164.300296 C243.755767,164.300296 244.714184,164.671748 245.433238,165.414664 C246.152292,166.157579 246.511814,167.190623 246.511814,168.513826 C246.511814,169.825941 246.155065,170.852517 245.441556,171.593584 C244.728047,172.334652 243.774252,172.70518 242.580142,172.70518 C241.371243,172.70518 240.410054,172.3365 239.696545,171.599128 C238.983037,170.861757 238.626288,169.846269 238.626288,168.552635 Z M240.317628,168.497194 C240.317628,169.417522 240.530198,170.11515 240.955346,170.590099 C241.380494,171.065047 241.920238,171.302518 242.574596,171.302518 C243.228954,171.302518 243.765926,171.066895 244.185528,170.595643 C244.60513,170.12439 244.814928,169.417522 244.814928,168.475017 C244.814928,167.543601 244.610676,166.848745 244.202164,166.390429 C243.793653,165.932112 243.251136,165.702958 242.574596,165.702958 C241.898057,165.702958 241.352767,165.934884 240.93871,166.398745 C240.524653,166.862605 240.317628,167.562081 240.317628,168.497194 Z M248.946234,172.566577 L247.005352,164.438899 L248.685602,164.438899 L249.91113,170.021827 L251.397291,164.438899 L253.349264,164.438899 L254.774426,170.116077 L256.022135,164.438899 L257.674658,164.438899 L255.700504,172.566577 L253.959255,172.566577 L252.340005,166.490223 L250.7263,172.566577 L248.946234,172.566577 Z" id="PAY-NOW" fill="#4A90E2"></path>
                <path d="M158.910305,136.313181 L158.910305,125.863308 L163.544655,125.863308 C164.476283,125.863308 165.1845,125.957161 165.669327,126.14487 C166.154154,126.332579 166.541534,126.664035 166.83148,127.139248 C167.121425,127.61446 167.266396,128.139562 167.266396,128.714569 C167.266396,129.455901 167.026362,130.080796 166.546289,130.589274 C166.066215,131.097751 165.324726,131.420891 164.3218,131.558703 C164.687797,131.734531 164.965855,131.907981 165.155984,132.079058 C165.560006,132.449724 165.942633,132.913049 166.303877,133.469048 L168.121968,136.313181 L166.382304,136.313181 L164.999129,134.139094 C164.595106,133.511813 164.262387,133.031856 164.000961,132.699207 C163.739534,132.366558 163.505443,132.133708 163.298678,132.000648 C163.091914,131.867588 162.881588,131.774923 162.667694,131.72265 C162.510838,131.689385 162.254169,131.672753 161.897678,131.672753 L160.29348,131.672753 L160.29348,136.313181 L158.910305,136.313181 Z M160.29348,130.475223 L163.266594,130.475223 C163.898771,130.475223 164.393096,130.409883 164.749587,130.279199 C165.106077,130.148516 165.377005,129.939425 165.56238,129.651922 C165.747755,129.364418 165.840441,129.05197 165.840441,128.714569 C165.840441,128.220348 165.661011,127.814048 165.302144,127.495655 C164.943277,127.177263 164.376466,127.018069 163.601694,127.018069 L160.29348,127.018069 L160.29348,130.475223 Z M168.756518,134.053556 L170.025617,133.853968 C170.096915,134.362445 170.295358,134.752114 170.620953,135.022985 C170.946547,135.293856 171.40166,135.42929 171.986304,135.42929 C172.575701,135.42929 173.012989,135.3093 173.298181,135.069318 C173.583374,134.829336 173.725968,134.547776 173.725968,134.224632 C173.725968,133.934752 173.60001,133.706653 173.34809,133.540329 C173.172221,133.426278 172.734933,133.28134 172.036212,133.105512 C171.095078,132.867905 170.44271,132.662379 170.07909,132.488926 C169.71547,132.315474 169.439788,132.075495 169.252037,131.768983 C169.064285,131.462471 168.970411,131.123887 168.970411,130.753221 C168.970411,130.41582 169.047649,130.103373 169.202128,129.815869 C169.356607,129.528366 169.566934,129.289575 169.833113,129.09949 C170.032748,128.952174 170.304864,128.827432 170.649472,128.725262 C170.994079,128.623091 171.363635,128.572006 171.758151,128.572006 C172.352301,128.572006 172.873958,128.657543 173.323136,128.82862 C173.772313,128.999696 174.103844,129.231359 174.317739,129.523615 C174.531633,129.815871 174.67898,130.206727 174.759784,130.696196 L173.504945,130.867272 C173.447906,130.477597 173.282735,130.173466 173.009426,129.954868 C172.736116,129.73627 172.349924,129.626973 171.850838,129.626973 C171.261441,129.626973 170.840788,129.72439 170.588869,129.919227 C170.336949,130.114064 170.210991,130.342163 170.210991,130.60353 C170.210991,130.769854 170.263275,130.919544 170.367846,131.052604 C170.472416,131.190415 170.636399,131.304465 170.8598,131.394755 C170.988136,131.442276 171.36601,131.551574 171.993433,131.72265 C172.901295,131.965008 173.53465,132.163407 173.893517,132.317851 C174.252384,132.472295 174.534007,132.696829 174.738395,132.991461 C174.942783,133.286093 175.044975,133.652001 175.044975,134.089197 C175.044975,134.516888 174.920205,134.919625 174.670662,135.297419 C174.421119,135.675213 174.061069,135.967464 173.590502,136.174182 C173.119935,136.380899 172.587584,136.484256 171.993433,136.484256 C171.00952,136.484256 170.259713,136.279918 169.743991,135.871235 C169.228268,135.462552 168.899114,134.856665 168.756518,134.053556 Z M176.934364,136.313181 L176.934364,134.851909 L178.395967,134.851909 L178.395967,136.313181 L176.934364,136.313181 Z M191.072699,135.08001 L191.072699,136.313181 L184.163952,136.313181 C184.154445,136.004292 184.204353,135.707289 184.313677,135.422161 C184.489545,134.951701 184.771168,134.488376 185.158555,134.032172 C185.545941,133.575968 186.105622,133.048489 186.837616,132.449722 C187.973631,131.518305 188.741262,130.780549 189.140531,130.23643 C189.539801,129.692312 189.739432,129.177902 189.739432,128.693185 C189.739432,128.184708 189.557625,127.755835 189.194005,127.406553 C188.830385,127.057272 188.35626,126.882634 187.771615,126.882634 C187.153699,126.882634 186.659373,127.067964 186.288623,127.43863 C185.917873,127.809296 185.730125,128.322518 185.725371,128.978311 L184.406364,128.842876 C184.496675,127.859186 184.836524,127.10955 185.425921,126.593944 C186.015318,126.078338 186.806715,125.820539 187.800135,125.820539 C188.803061,125.820539 189.596834,126.098535 190.181478,126.654533 C190.766122,127.210532 191.05844,127.89958 191.05844,128.721698 C191.05844,129.139885 190.972883,129.550937 190.801768,129.954868 C190.630653,130.358799 190.346653,130.784108 189.94976,131.230807 C189.552868,131.677507 188.893371,132.290522 187.971249,133.069871 C187.20123,133.71616 186.706904,134.154537 186.488257,134.385015 C186.269609,134.615493 186.08899,134.847156 185.946394,135.08001 L191.072699,135.08001 Z M192.448745,133.57597 L193.796271,133.461919 C193.896089,134.117713 194.127804,134.610738 194.491424,134.941011 C194.855044,135.271284 195.293521,135.436418 195.806867,135.436418 C196.424783,135.436418 196.947628,135.203567 197.375416,134.737859 C197.803205,134.27215 198.017096,133.654383 198.017096,132.884539 C198.017096,132.152712 197.811523,131.575337 197.40037,131.152398 C196.989218,130.729459 196.450926,130.517992 195.785477,130.517992 C195.371949,130.517992 194.998828,130.611845 194.666103,130.799554 C194.333379,130.987263 194.071957,131.230806 193.881829,131.53019 L192.676898,131.373371 L193.689325,126.005871 L198.886928,126.005871 L198.886928,127.231914 L194.716012,127.231914 L194.15276,130.040406 C194.780183,129.60321 195.438492,129.384616 196.127706,129.384616 C197.040322,129.384616 197.810329,129.700627 198.437752,130.33266 C199.065175,130.964693 199.378882,131.777294 199.378882,132.770489 C199.378882,133.716162 199.1032,134.533515 198.551828,135.222573 C197.881627,136.068452 196.966649,136.491384 195.806867,136.491384 C194.856226,136.491384 194.080277,136.225269 193.478997,135.693031 C192.877716,135.160793 192.534303,134.455113 192.448745,133.57597 Z M200.569553,131.159526 C200.569553,129.923973 200.6967,128.929606 200.950996,128.176394 C201.205293,127.423182 201.583167,126.842243 202.08463,126.433561 C202.586093,126.024878 203.217071,125.820539 203.977584,125.820539 C204.538462,125.820539 205.030411,125.933401 205.453446,126.159127 C205.876481,126.384853 206.225837,126.710368 206.501522,127.135684 C206.777208,127.560999 206.993476,128.078973 207.150332,128.689621 C207.307187,129.300269 207.385614,130.123563 207.385614,131.159526 C207.385614,132.385574 207.259656,133.37519 207.007736,134.128402 C206.755816,134.881614 206.379131,135.46374 205.877668,135.874799 C205.376205,136.285858 204.74285,136.491384 203.977584,136.491384 C202.969904,136.491384 202.178508,136.130228 201.60337,135.407905 C200.914156,134.538266 200.569553,133.122154 200.569553,131.159526 Z M201.888561,131.159526 C201.888561,132.875043 202.089381,134.016724 202.491027,134.584603 C202.892672,135.152483 203.388186,135.436418 203.977584,135.436418 C204.566981,135.436418 205.062495,135.151294 205.464141,134.581039 C205.865787,134.010784 206.066606,132.870291 206.066606,131.159526 C206.066606,129.439256 205.865787,128.296387 205.464141,127.730884 C205.062495,127.165381 204.562228,126.882634 203.963324,126.882634 C203.373927,126.882634 202.903367,127.132117 202.55163,127.63109 C202.109582,128.267875 201.888561,129.444009 201.888561,131.159526 Z M208.690362,131.159526 C208.690362,129.923973 208.817508,128.929606 209.071805,128.176394 C209.326101,127.423182 209.703975,126.842243 210.205438,126.433561 C210.706901,126.024878 211.33788,125.820539 212.098392,125.820539 C212.65927,125.820539 213.15122,125.933401 213.574255,126.159127 C213.99729,126.384853 214.346645,126.710368 214.622331,127.135684 C214.898017,127.560999 215.114284,128.078973 215.27114,128.689621 C215.427996,129.300269 215.506423,130.123563 215.506423,131.159526 C215.506423,132.385574 215.380465,133.37519 215.128545,134.128402 C214.876625,134.881614 214.499939,135.46374 213.998476,135.874799 C213.497013,136.285858 212.863658,136.491384 212.098392,136.491384 C211.090713,136.491384 210.299316,136.130228 209.724179,135.407905 C209.034964,134.538266 208.690362,133.122154 208.690362,131.159526 Z M210.00937,131.159526 C210.00937,132.875043 210.210189,134.016724 210.611835,134.584603 C211.013481,135.152483 211.508995,135.436418 212.098392,135.436418 C212.68779,135.436418 213.183304,135.151294 213.584949,134.581039 C213.986595,134.010784 214.187415,132.870291 214.187415,131.159526 C214.187415,129.439256 213.986595,128.296387 213.584949,127.730884 C213.183304,127.165381 212.683036,126.882634 212.084133,126.882634 C211.494735,126.882634 211.024175,127.132117 210.672438,127.63109 C210.23039,128.267875 210.00937,129.444009 210.00937,131.159526 Z" id="Rs.-2500" fill="url(#linearGradient-3)"></path>
            </g>
        </g>
    </g>
</svg>