<?xml version="1.0" encoding="UTF-8"?>
<svg width="303px" height="220px" viewBox="0 0 303 220" version="1.1" xmlns="http://www.w3.org/2000/svg" xmlns:xlink="http://www.w3.org/1999/xlink">
    <!-- Generator: Sketch 53.2 (72643) - https://sketchapp.com -->
    <title>Group 8</title>
    <desc>Created with Sketch.</desc>
    <defs>
        <path d="M0,10.0025638 C0,4.47830035 4.4724924,0 9.99873012,0 L264.101656,0 C269.623802,0 274.100386,4.48007814 274.100386,10.0025638 L274.100386,180.726299 C274.100386,186.250563 269.627894,190.728863 264.101656,190.728863 L9.99873012,190.728863 C4.47658396,190.728863 0,186.248785 0,180.726299 L0,10.0025638 Z" id="path-1"></path>
        <filter x="-8.2%" y="-11.8%" width="116.4%" height="123.6%" filterUnits="objectBoundingBox" id="filter-2">
            <feOffset dx="0" dy="0" in="SourceAlpha" result="shadowOffsetOuter1"></feOffset>
            <feGaussianBlur stdDeviation="7.5" in="shadowOffsetOuter1" result="shadowBlurOuter1"></feGaussianBlur>
            <feColorMatrix values="0 0 0 0 0   0 0 0 0 0   0 0 0 0 0  0 0 0 0.202587183 0" type="matrix" in="shadowBlurOuter1"></feColorMatrix>
        </filter>
    </defs>
    <g id="Page-1" stroke="none" stroke-width="1" fill="none" fill-rule="evenodd">
        <g id="Intro-Screen-03-Copy" transform="translate(-35.000000, -74.000000)">
            <g id="Group-8" transform="translate(49.000000, 88.000000)">
                <g id="Group-9">
                    <g id="Group-2">
                        <g id="Group-12-Copy" transform="translate(0.650003, 0.635569)">
                            <g id="Rectangle-11">
                                <use fill="black" fill-opacity="1" filter="url(#filter-2)" xlink:href="#path-1"></use>
                                <use fill="#FFFFFF" fill-rule="evenodd" xlink:href="#path-1"></use>
                            </g>
                            <path d="M174.19723,174.206392 L174.19723,166.135842 L177.625223,166.135842 C178.487269,166.135842 179.113619,166.208326 179.504291,166.353295 C179.894963,166.498265 180.20768,166.756087 180.44245,167.126769 C180.67722,167.497451 180.794603,167.921343 180.794603,168.398459 C180.794603,169.004028 180.616694,169.504074 180.260871,169.898612 C179.905047,170.29315 179.373154,170.541797 178.665176,170.64456 C179.017331,170.850086 179.308038,171.075795 179.537306,171.321693 C179.766573,171.567591 180.075621,172.004329 180.464459,172.631919 L181.449388,174.206392 L179.50154,174.206392 L178.324027,172.450249 C177.905843,171.822659 177.619721,171.427209 177.465653,171.263889 C177.311585,171.100569 177.148349,170.988632 176.97594,170.928075 C176.803531,170.867518 176.530248,170.83724 176.156083,170.83724 L175.825939,170.83724 L175.825939,174.206392 L174.19723,174.206392 Z M175.825939,169.549035 L177.030964,169.549035 C177.812308,169.549035 178.300182,169.516004 178.494601,169.449942 C178.68902,169.38388 178.841252,169.270108 178.9513,169.108623 C179.061349,168.947138 179.116372,168.745284 179.116372,168.503056 C179.116372,168.231468 179.043925,168.012181 178.899028,167.845191 C178.75413,167.678201 178.549627,167.572686 178.28551,167.528645 C178.153452,167.510294 177.757284,167.501119 177.096993,167.501119 L175.825939,167.501119 L175.825939,169.549035 Z M182.329772,174.206392 L182.329772,166.135842 L188.310877,166.135842 L188.310877,167.501119 L183.958481,167.501119 L183.958481,169.290293 L188.008245,169.290293 L188.008245,170.650065 L183.958481,170.650065 L183.958481,172.84662 L188.464944,172.84662 L188.464944,174.206392 L182.329772,174.206392 Z M195.007294,171.239116 L196.586481,171.740085 C196.344375,172.620913 195.941787,173.275102 195.378705,173.702671 C194.815624,174.13024 194.101237,174.344021 193.235522,174.344021 C192.164383,174.344021 191.284009,173.977932 190.594372,173.245743 C189.904734,172.513555 189.559921,171.512545 189.559921,170.242684 C189.559921,168.899421 189.906569,167.856205 190.599874,167.113006 C191.293179,166.369807 192.204734,165.998213 193.334565,165.998213 C194.321333,165.998213 195.122841,166.289983 195.739112,166.873532 C196.105941,167.218523 196.381058,167.713982 196.564472,168.359923 L194.95227,168.745283 C194.856894,168.32689 194.657893,167.996584 194.35526,167.754356 C194.052626,167.512128 193.684886,167.391016 193.252029,167.391016 C192.654099,167.391016 192.168976,167.605715 191.796645,168.035119 C191.424315,168.464523 191.238152,169.16 191.238152,170.121571 C191.238152,171.141863 191.421563,171.868536 191.788392,172.30161 C192.15522,172.734684 192.632089,172.951218 193.219015,172.951218 C193.651872,172.951218 194.024197,172.81359 194.336001,172.538331 C194.647805,172.263073 194.871567,171.830005 195.007294,171.239116 Z M197.653946,170.220663 C197.653946,169.398557 197.776832,168.708585 198.022607,168.150727 C198.206021,167.739674 198.456378,167.370832 198.773684,167.044192 C199.090991,166.717551 199.438555,166.475327 199.816388,166.317512 C200.318943,166.104645 200.898523,165.998213 201.555146,165.998213 C202.743669,165.998213 203.694657,166.367054 204.408138,167.104748 C205.121619,167.842442 205.478354,168.868225 205.478354,170.182127 C205.478354,171.485019 205.12437,172.504379 204.416392,173.240238 C203.708413,173.976097 202.76201,174.344021 201.577155,174.344021 C200.377627,174.344021 199.423887,173.977932 198.715909,173.245743 C198.00793,172.513555 197.653946,171.505205 197.653946,170.220663 Z M199.332177,170.165612 C199.332177,171.079471 199.5431,171.772196 199.964953,172.243806 C200.386805,172.715416 200.922367,172.951218 201.571653,172.951218 C202.220939,172.951218 202.753749,172.717251 203.170099,172.249311 C203.586449,171.781371 203.794621,171.079471 203.794621,170.143591 C203.794621,169.218721 203.591951,168.528749 203.186606,168.073655 C202.781261,167.61856 202.242948,167.391016 201.571653,167.391016 C200.900357,167.391016 200.359293,167.621313 199.948446,168.081912 C199.537598,168.542512 199.332177,169.237072 199.332177,170.165612 Z M206.75491,174.206392 L206.75491,166.135842 L210.182903,166.135842 C211.04495,166.135842 211.6713,166.208326 212.061972,166.353295 C212.452644,166.498265 212.76536,166.756087 213.00013,167.126769 C213.234901,167.497451 213.352284,167.921343 213.352284,168.398459 C213.352284,169.004028 213.174375,169.504074 212.818551,169.898612 C212.462728,170.29315 211.930835,170.541797 211.222856,170.64456 C211.575012,170.850086 211.865719,171.075795 212.094986,171.321693 C212.324254,171.567591 212.633302,172.004329 213.02214,172.631919 L214.007069,174.206392 L212.059221,174.206392 L210.881708,172.450249 C210.463524,171.822659 210.177402,171.427209 210.023334,171.263889 C209.869266,171.100569 209.70603,170.988632 209.533621,170.928075 C209.361211,170.867518 209.087928,170.83724 208.713764,170.83724 L208.38362,170.83724 L208.38362,174.206392 L206.75491,174.206392 Z M208.38362,169.549035 L209.588645,169.549035 C210.369989,169.549035 210.857863,169.516004 211.052282,169.449942 C211.246701,169.38388 211.398933,169.270108 211.508981,169.108623 C211.619029,168.947138 211.674053,168.745284 211.674053,168.503056 C211.674053,168.231468 211.601605,168.012181 211.456708,167.845191 C211.311811,167.678201 211.107307,167.572686 210.843191,167.528645 C210.711133,167.510294 210.314964,167.501119 209.654673,167.501119 L208.38362,167.501119 L208.38362,169.549035 Z M214.88195,166.135842 L217.858747,166.135842 C218.530042,166.135842 219.04176,166.187223 219.393915,166.289986 C219.867124,166.429451 220.272463,166.67718 220.609945,167.033181 C220.947427,167.389183 221.204203,167.825003 221.380281,168.340654 C221.556358,168.856306 221.644396,169.492145 221.644396,170.248189 C221.644396,170.91248 221.56186,171.48501 221.396788,171.965796 C221.195032,172.553015 220.907076,173.028288 220.532911,173.39163 C220.250454,173.666889 219.868958,173.881587 219.388413,174.035732 C219.028921,174.149506 218.548383,174.206392 217.946785,174.206392 L214.88195,174.206392 L214.88195,166.135842 Z M216.51066,167.501119 L216.51066,172.84662 L217.726689,172.84662 C218.181556,172.84662 218.509863,172.820929 218.711618,172.769548 C218.975735,172.703486 219.194911,172.591549 219.369155,172.433734 C219.543398,172.275919 219.685542,172.016262 219.79559,171.654755 C219.905639,171.293248 219.960662,170.800542 219.960662,170.176622 C219.960662,169.552702 219.905639,169.073759 219.79559,168.739778 C219.685542,168.405797 219.531476,168.145223 219.333389,167.958047 C219.135302,167.770871 218.884028,167.644253 218.579561,167.578191 C218.352127,167.52681 217.906437,167.501119 217.242478,167.501119 L216.51066,167.501119 Z M226.172868,174.206392 L226.172868,166.135842 L227.757558,166.135842 L231.058996,171.525384 L231.058996,166.135842 L232.572155,166.135842 L232.572155,174.206392 L230.937943,174.206392 L227.686027,168.943468 L227.686027,174.206392 L226.172868,174.206392 Z M234.294405,174.206392 L234.294405,166.135842 L240.27551,166.135842 L240.27551,167.501119 L235.923115,167.501119 L235.923115,169.290293 L239.972879,169.290293 L239.972879,170.650065 L235.923115,170.650065 L235.923115,172.84662 L240.429578,172.84662 L240.429578,174.206392 L234.294405,174.206392 Z M242.955178,174.206392 L241.029339,166.135842 L242.696565,166.135842 L243.912595,171.679528 L245.387237,166.135842 L247.32408,166.135842 L248.738196,171.773116 L249.976236,166.135842 L251.61595,166.135842 L249.657097,174.206392 L247.929344,174.206392 L246.322644,168.172747 L244.721447,174.206392 L242.955178,174.206392 Z" id="RECORD-NEW" fill="#4A90E2"></path>
                            <path d="M15.01211,90.8321776 C15.01211,89.9041619 15.269934,89.2168115 15.7855898,88.7701056 C16.216351,88.3988993 16.7414316,88.213299 17.3608473,88.213299 C18.0494364,88.213299 18.6122473,88.4390079 19.049297,88.8904325 C19.4863467,89.341857 19.7048683,89.9655057 19.7048683,90.7613971 C19.7048683,91.4062893 19.6081843,91.9135445 19.4148134,92.2831779 C19.2214425,92.6528112 18.940037,92.9398626 18.5705885,93.1443407 C18.20114,93.3488187 17.797897,93.4510562 17.3608473,93.4510562 C16.6596813,93.4510562 16.0929401,93.2261337 15.6606068,92.776282 C15.2282735,92.3264304 15.01211,91.678402 15.01211,90.8321776 Z M15.8846329,90.8321776 C15.8846329,91.473924 16.0245496,91.9544402 16.3043872,92.2737405 C16.5842247,92.5930408 16.9363746,92.7526885 17.3608473,92.7526885 C17.7821758,92.7526885 18.1327536,92.5922543 18.4125911,92.2713811 C18.6924287,91.9505079 18.8323454,91.4613409 18.8323454,90.8038654 C18.8323454,90.1841397 18.6916427,89.7146337 18.410233,89.3953334 C18.1288233,89.0760331 17.7790316,88.9163853 17.3608473,88.9163853 C16.9363746,88.9163853 16.5842247,89.0752466 16.3043872,89.392974 C16.0245496,89.7107014 15.8846329,90.1904312 15.8846329,90.8321776 Z M20.700016,93.3378074 L20.700016,88.3265478 L21.4640631,88.3265478 L21.4640631,89.0390715 C21.8319394,88.4885538 22.3633084,88.213299 23.058186,88.213299 C23.3600332,88.213299 23.6375085,88.2675635 23.89062,88.3760942 C24.1437315,88.4846248 24.3331692,88.6269708 24.4589389,88.8031365 C24.5847086,88.9793022 24.6727461,89.1884958 24.723054,89.4307236 C24.7544964,89.5880144 24.7702174,89.8632692 24.7702174,90.2564962 L24.7702174,93.3378074 L23.9212762,93.3378074 L23.9212762,90.2895271 C23.9212762,89.9434873 23.8882621,89.6847479 23.822233,89.5133009 C23.756204,89.3418539 23.6390827,89.205013 23.4708657,89.102774 C23.3026488,89.000535 23.1053505,88.9494162 22.8789651,88.9494162 C22.5173772,88.9494162 22.2053158,89.0642368 21.9427716,89.2938813 C21.6802273,89.5235259 21.5489572,89.9592148 21.5489572,90.6009613 L21.5489572,93.3378074 L20.700016,93.3378074 Z M31.7173861,93.3378074 L30.8684449,93.3378074 L30.8684449,87.9254583 C30.6640692,88.1204989 30.3960265,88.3155365 30.064309,88.5105771 C29.7325914,88.7056177 29.4346789,88.8518959 29.1705625,88.9494162 L29.1705625,88.1283624 C29.6453431,87.9050095 30.0603769,87.6344734 30.4156763,87.316746 C30.7709757,86.9990186 31.0225113,86.6907332 31.1702907,86.3918807 L31.7173861,86.3918807 L31.7173861,93.3378074 Z M33.8916188,91.5258265 L34.7830071,91.4503273 C34.8490362,91.8844499 35.0023157,92.2108234 35.2428502,92.4294576 C35.4833848,92.6480918 35.7734368,92.7574072 36.1130149,92.7574072 C36.5217664,92.7574072 36.8676279,92.6032646 37.1506097,92.2949746 C37.4335915,91.9866847 37.5750803,91.5777348 37.5750803,91.0681126 C37.5750803,90.583657 37.4390939,90.2014461 37.1671169,89.9214685 C36.8951399,89.6414908 36.5390598,89.5015041 36.0988659,89.5015041 C35.8253168,89.5015041 35.5784975,89.5636331 35.3584005,89.6878928 C35.1383036,89.8121525 34.9653728,89.9733732 34.8396031,90.1715596 L34.0425417,90.0677482 L34.712262,86.5145669 L38.1504738,86.5145669 L38.1504738,87.3261834 L35.3914149,87.3261834 L35.0188241,89.1853512 C35.4338641,88.8959362 35.8693351,88.7512308 36.3252502,88.7512308 C36.9289448,88.7512308 37.4383044,88.9604244 37.8533444,89.3788179 C38.2683844,89.7972114 38.4759012,90.3351379 38.4759012,90.9926134 C38.4759012,91.6186307 38.2935379,92.1597029 37.9288058,92.6158462 C37.4854676,93.1758015 36.8802101,93.4557749 36.1130149,93.4557749 C35.4841665,93.4557749 34.9708766,93.2796118 34.5731299,92.9272804 C34.1753833,92.5749491 33.9482152,92.1078024 33.8916188,91.5258265 Z M41.3528686,92.5780966 L41.4754934,93.32837 C41.236531,93.378703 41.0227258,93.4038692 40.8340712,93.4038692 C40.5259355,93.4038692 40.2869766,93.3551097 40.1171875,93.2575895 C39.9473985,93.1600692 39.827919,93.0318791 39.7587457,92.8730154 C39.6895724,92.7141517 39.6549862,92.3799138 39.6549862,91.8702916 L39.6549862,88.9871658 L39.0324294,88.9871658 L39.0324294,88.3265478 L39.6549862,88.3265478 L39.6549862,87.0855297 L40.4992111,86.57591 L40.4992111,88.3265478 L41.3528686,88.3265478 L41.3528686,88.9871658 L40.4992111,88.9871658 L40.4992111,91.9174786 C40.4992111,92.1597064 40.514146,92.315422 40.5440163,92.3846299 C40.5738866,92.4538379 40.6226216,92.5088888 40.6902228,92.5497844 C40.7578241,92.59068 40.8545081,92.6111275 40.9802778,92.6111275 C41.074605,92.6111275 41.1988007,92.6001173 41.3528686,92.5780966 Z M42.1829444,93.3378074 L42.1829444,86.4201929 L43.0318856,86.4201929 L43.0318856,88.9022292 C43.4280602,88.4429401 43.9279872,88.213299 44.5316817,88.213299 C44.9027023,88.213299 45.2249823,88.2864381 45.4985314,88.4327186 C45.7720805,88.578999 45.9678066,88.7811146 46.0857157,89.0390715 C46.2036248,89.2970284 46.2625785,89.6713749 46.2625785,90.1621222 L46.2625785,93.3378074 L45.4136373,93.3378074 L45.4136373,90.1621222 C45.4136373,89.737437 45.3216696,89.4283653 45.1377314,89.2348976 C44.9537932,89.0414299 44.6936111,88.9446975 44.3571771,88.9446975 C44.1056378,88.9446975 43.8690371,89.0099722 43.647368,89.1405236 C43.4256989,89.2710749 43.2677031,89.4480244 43.1733758,89.6713773 C43.0790486,89.8947303 43.0318856,90.2030156 43.0318856,90.5962426 L43.0318856,93.3378074 L42.1829444,93.3378074 Z M50.3186308,93.3378074 L50.3186308,86.4201929 L51.6958021,86.4201929 L53.3323721,91.3182037 C53.4832957,91.774347 53.5933425,92.1156629 53.6625159,92.3421616 C53.7411219,92.0904964 53.8637455,91.7208685 54.0303904,91.2332671 L55.6858257,86.4201929 L56.9167904,86.4201929 L56.9167904,93.3378074 L56.0348348,93.3378074 L56.0348348,87.5479623 L54.025674,93.3378074 L53.2003145,93.3378074 L51.2005864,87.4488696 L51.2005864,93.3378074 L50.3186308,93.3378074 Z M61.5529526,92.7196576 C61.2385283,92.987052 60.9358996,93.1757981 60.6450571,93.2859017 C60.3542147,93.3960052 60.0421533,93.4510562 59.7088637,93.4510562 C59.1586212,93.4510562 58.735727,93.3165746 58.4401682,93.0476073 C58.1446094,92.77864 57.9968323,92.4349648 57.9968323,92.0165713 C57.9968323,91.7711977 58.0526417,91.5470617 58.1642623,91.3441565 C58.2758829,91.1412514 58.422088,90.9784579 58.6028819,90.8557711 C58.7836759,90.7330843 58.9872625,90.6402841 59.213648,90.5773678 C59.3802928,90.5333264 59.6318284,90.4908585 59.9682624,90.4499629 C60.6537072,90.3681717 61.1583505,90.2706528 61.4822075,90.1574035 C61.4853517,90.0410083 61.4869238,89.9670827 61.4869238,89.9356246 C61.4869238,89.5895848 61.4067468,89.3457877 61.2463905,89.204226 C61.0294378,89.0123313 60.7071578,88.9163853 60.2795408,88.9163853 C59.880222,88.9163853 59.5854537,88.9863787 59.3952271,89.1263675 C59.2050004,89.2663563 59.0642977,89.5140856 58.9731146,89.8695628 L58.1430388,89.7563139 C58.2185006,89.4008368 58.3426963,89.1137854 58.5156297,88.8951512 C58.688563,88.676517 58.9385265,88.5082183 59.2655277,88.3902503 C59.5925289,88.2722822 59.9714044,88.213299 60.4021656,88.213299 C60.8297826,88.213299 61.1772162,88.2636313 61.4444768,88.3642974 C61.7117374,88.4649635 61.9082496,88.5915807 62.0340192,88.7441528 C62.1597889,88.8967248 62.2478264,89.0894032 62.2981343,89.3221935 C62.3264325,89.4669011 62.3405813,89.7279999 62.3405813,90.1054978 L62.3405813,91.2379858 C62.3405813,92.0275856 62.3586605,92.5269763 62.3948193,92.7361731 C62.430978,92.9453698 62.5025085,93.1459126 62.6094127,93.3378074 L61.7227408,93.3378074 C61.634702,93.1616417 61.5781065,92.9555938 61.5529526,92.7196576 Z M61.4822075,90.8227402 C61.1740717,90.9485728 60.711875,91.0555289 60.0956035,91.1436118 C59.7465926,91.1939448 59.4997733,91.2505687 59.3551382,91.313485 C59.210503,91.3764013 59.0988841,91.468415 59.020278,91.589529 C58.941672,91.7106429 58.9023695,91.8451245 58.9023695,91.9929778 C58.9023695,92.2194766 58.9880488,92.4082227 59.1594101,92.5592218 C59.3307713,92.710221 59.5815208,92.7857194 59.9116663,92.7857194 C60.2386675,92.7857194 60.5295055,92.7141532 60.7841892,92.5710186 C61.0388728,92.427884 61.2259524,92.2320599 61.3454336,91.9835404 C61.4366166,91.7916457 61.4822075,91.5085265 61.4822075,91.1341744 L61.4822075,90.8227402 Z M63.6470075,93.3378074 L63.6470075,88.3265478 L64.4110546,88.3265478 L64.4110546,89.0862585 C64.6059976,88.7307813 64.7860028,88.4964216 64.9510755,88.3831722 C65.1161482,88.2699228 65.2977255,88.213299 65.4958128,88.213299 C65.7819388,88.213299 66.0727769,88.3045263 66.3683357,88.4869836 L66.0759226,89.2750065 C65.8684026,89.1523197 65.6608857,89.0909772 65.4533657,89.0909772 C65.2678554,89.0909772 65.1012131,89.1468146 64.9534337,89.2584911 C64.8056543,89.3701675 64.7003237,89.5250966 64.6374389,89.723283 C64.5431116,90.0252814 64.4959487,90.3555871 64.4959487,90.7142101 L64.4959487,93.3378074 L63.6470075,93.3378074 Z M67.1795461,87.3356208 L67.1795461,86.3494124 L68.0897997,86.3494124 L68.0897997,87.127998 C68.0897997,87.5495373 68.0410647,87.853104 67.9435932,88.0387071 C67.8083908,88.2935182 67.5977297,88.4854101 67.3116036,88.6143885 L67.1040847,88.2793608 C67.2738738,88.2101529 67.4004276,88.1008374 67.4837501,87.9514111 C67.5670725,87.8019849 67.6134494,87.5967235 67.6228821,87.3356208 L67.1795461,87.3356208 Z M72.339222,93.3378074 L71.4902808,93.3378074 L71.4902808,87.9254583 C71.2859051,88.1204989 71.0178624,88.3155365 70.6861449,88.5105771 C70.3544273,88.7056177 70.0565148,88.8518959 69.7923985,88.9494162 L69.7923985,88.1283624 C70.267179,87.9050095 70.6822128,87.6344734 71.0375122,87.316746 C71.3928116,86.9990186 71.6443472,86.6907332 71.7921266,86.3918807 L72.339222,86.3918807 L72.339222,93.3378074 Z M78.9185162,88.1142063 L78.0742914,88.1802681 C77.9988296,87.8468116 77.8919269,87.6045874 77.7535803,87.4535883 C77.5240506,87.2113605 77.241073,87.0902484 76.9046391,87.0902484 C76.6342342,87.0902484 76.3968475,87.1657468 76.1924718,87.316746 C75.9252112,87.5117866 75.7145501,87.7964786 75.5604822,88.1708307 C75.4064143,88.5451828 75.3262373,89.0783906 75.3199489,89.77047 C75.5243246,89.4590343 75.7742881,89.2278203 76.0698469,89.0768211 C76.3654057,88.925822 76.6751089,88.8503235 76.9989659,88.8503235 C77.5649295,88.8503235 78.0467774,89.0587307 78.4445241,89.4755513 C78.8422707,89.8923719 79.0411411,90.4310848 79.0411411,91.0917061 C79.0411411,91.5258287 78.9476013,91.9292735 78.7605189,92.3020527 C78.5734364,92.6748319 78.3163985,92.9603104 77.9893973,93.1584968 C77.6623961,93.3566832 77.291381,93.4557749 76.876341,93.4557749 C76.1688865,93.4557749 75.5919267,93.1954625 75.1454443,92.67483 C74.6989619,92.1541975 74.475724,91.2961891 74.475724,90.1007791 C74.475724,88.7638073 74.7225433,87.7917648 75.2161894,87.1846224 C75.6469506,86.6561253 76.2270546,86.3918807 76.9565188,86.3918807 C77.5004728,86.3918807 77.9461624,86.5444505 78.2936012,86.8495947 C78.64104,87.1547388 78.8493429,87.5762718 78.9185162,88.1142063 Z M75.4520064,91.0964248 C75.4520064,91.3889857 75.5141042,91.6689591 75.6383018,91.9363534 C75.7624994,92.2037478 75.9362162,92.4074363 76.1594574,92.5474251 C76.3826986,92.6874139 76.6169411,92.7574072 76.862192,92.7574072 C77.2206357,92.7574072 77.5287668,92.6127019 77.7865947,92.3232868 C78.0444225,92.0338718 78.1733345,91.6406507 78.1733345,91.1436118 C78.1733345,90.6654478 78.0459946,90.288742 77.791311,90.0134831 C77.5366274,89.7382242 77.2159195,89.6005968 76.8291776,89.6005968 C76.4455801,89.6005968 76.1201559,89.7382242 75.8528953,90.0134831 C75.5856347,90.288742 75.4520064,90.6497189 75.4520064,91.0964248 Z" id="on-15th-Mar’16" fill="#A9A9A9"></path>
                            <path d="M15.01211,149.151667 C15.01211,148.223651 15.269934,147.536301 15.7855898,147.089595 C16.216351,146.718389 16.7414316,146.532789 17.3608473,146.532789 C18.0494364,146.532789 18.6122473,146.758497 19.049297,147.209922 C19.4863467,147.661347 19.7048683,148.284995 19.7048683,149.080887 C19.7048683,149.725779 19.6081843,150.233034 19.4148134,150.602667 C19.2214425,150.972301 18.940037,151.259352 18.5705885,151.46383 C18.20114,151.668308 17.797897,151.770546 17.3608473,151.770546 C16.6596813,151.770546 16.0929401,151.545623 15.6606068,151.095772 C15.2282735,150.64592 15.01211,149.997892 15.01211,149.151667 Z M15.8846329,149.151667 C15.8846329,149.793414 16.0245496,150.27393 16.3043872,150.59323 C16.5842247,150.91253 16.9363746,151.072178 17.3608473,151.072178 C17.7821758,151.072178 18.1327536,150.911744 18.4125911,150.590871 C18.6924287,150.269997 18.8323454,149.78083 18.8323454,149.123355 C18.8323454,148.503629 18.6916427,148.034123 18.410233,147.714823 C18.1288233,147.395523 17.7790316,147.235875 17.3608473,147.235875 C16.9363746,147.235875 16.5842247,147.394736 16.3043872,147.712464 C16.0245496,148.030191 15.8846329,148.509921 15.8846329,149.151667 Z M20.700016,151.657297 L20.700016,146.646037 L21.4640631,146.646037 L21.4640631,147.358561 C21.8319394,146.808043 22.3633084,146.532789 23.058186,146.532789 C23.3600332,146.532789 23.6375085,146.587053 23.89062,146.695584 C24.1437315,146.804114 24.3331692,146.94646 24.4589389,147.122626 C24.5847086,147.298792 24.6727461,147.507985 24.723054,147.750213 C24.7544964,147.907504 24.7702174,148.182759 24.7702174,148.575986 L24.7702174,151.657297 L23.9212762,151.657297 L23.9212762,148.609017 C23.9212762,148.262977 23.8882621,148.004237 23.822233,147.83279 C23.756204,147.661343 23.6390827,147.524503 23.4708657,147.422263 C23.3026488,147.320024 23.1053505,147.268906 22.8789651,147.268906 C22.5173772,147.268906 22.2053158,147.383726 21.9427716,147.613371 C21.6802273,147.843015 21.5489572,148.278704 21.5489572,148.920451 L21.5489572,151.657297 L20.700016,151.657297 Z M31.7173861,151.657297 L30.8684449,151.657297 L30.8684449,146.244948 C30.6640692,146.439988 30.3960265,146.635026 30.064309,146.830067 C29.7325914,147.025107 29.4346789,147.171385 29.1705625,147.268906 L29.1705625,146.447852 C29.6453431,146.224499 30.0603769,145.953963 30.4156763,145.636235 C30.7709757,145.318508 31.0225113,145.010223 31.1702907,144.71137 L31.7173861,144.71137 L31.7173861,151.657297 Z M33.8916188,149.845316 L34.7830071,149.769817 C34.8490362,150.203939 35.0023157,150.530313 35.2428502,150.748947 C35.4833848,150.967581 35.7734368,151.076897 36.1130149,151.076897 C36.5217664,151.076897 36.8676279,150.922754 37.1506097,150.614464 C37.4335915,150.306174 37.5750803,149.897224 37.5750803,149.387602 C37.5750803,148.903146 37.4390939,148.520936 37.1671169,148.240958 C36.8951399,147.96098 36.5390598,147.820994 36.0988659,147.820994 C35.8253168,147.820994 35.5784975,147.883123 35.3584005,148.007382 C35.1383036,148.131642 34.9653728,148.292863 34.8396031,148.491049 L34.0425417,148.387238 L34.712262,144.834056 L38.1504738,144.834056 L38.1504738,145.645673 L35.3914149,145.645673 L35.0188241,147.504841 C35.4338641,147.215426 35.8693351,147.07072 36.3252502,147.07072 C36.9289448,147.07072 37.4383044,147.279914 37.8533444,147.698307 C38.2683844,148.116701 38.4759012,148.654627 38.4759012,149.312103 C38.4759012,149.93812 38.2935379,150.479192 37.9288058,150.935336 C37.4854676,151.495291 36.8802101,151.775264 36.1130149,151.775264 C35.4841665,151.775264 34.9708766,151.599101 34.5731299,151.24677 C34.1753833,150.894439 33.9482152,150.427292 33.8916188,149.845316 Z M41.3528686,150.897586 L41.4754934,151.647859 C41.236531,151.698193 41.0227258,151.723359 40.8340712,151.723359 C40.5259355,151.723359 40.2869766,151.674599 40.1171875,151.577079 C39.9473985,151.479559 39.827919,151.351369 39.7587457,151.192505 C39.6895724,151.033641 39.6549862,150.699403 39.6549862,150.189781 L39.6549862,147.306655 L39.0324294,147.306655 L39.0324294,146.646037 L39.6549862,146.646037 L39.6549862,145.405019 L40.4992111,144.8954 L40.4992111,146.646037 L41.3528686,146.646037 L41.3528686,147.306655 L40.4992111,147.306655 L40.4992111,150.236968 C40.4992111,150.479196 40.514146,150.634912 40.5440163,150.704119 C40.5738866,150.773327 40.6226216,150.828378 40.6902228,150.869274 C40.7578241,150.91017 40.8545081,150.930617 40.9802778,150.930617 C41.074605,150.930617 41.1988007,150.919607 41.3528686,150.897586 Z M42.1829444,151.657297 L42.1829444,144.739682 L43.0318856,144.739682 L43.0318856,147.221719 C43.4280602,146.76243 43.9279872,146.532789 44.5316817,146.532789 C44.9027023,146.532789 45.2249823,146.605928 45.4985314,146.752208 C45.7720805,146.898489 45.9678066,147.100604 46.0857157,147.358561 C46.2036248,147.616518 46.2625785,147.990864 46.2625785,148.481612 L46.2625785,151.657297 L45.4136373,151.657297 L45.4136373,148.481612 C45.4136373,148.056927 45.3216696,147.747855 45.1377314,147.554387 C44.9537932,147.360919 44.6936111,147.264187 44.3571771,147.264187 C44.1056378,147.264187 43.8690371,147.329462 43.647368,147.460013 C43.4256989,147.590564 43.2677031,147.767514 43.1733758,147.990867 C43.0790486,148.21422 43.0318856,148.522505 43.0318856,148.915732 L43.0318856,151.657297 L42.1829444,151.657297 Z M50.3186308,151.657297 L50.3186308,144.739682 L51.6958021,144.739682 L53.3323721,149.637693 C53.4832957,150.093837 53.5933425,150.435152 53.6625159,150.661651 C53.7411219,150.409986 53.8637455,150.040358 54.0303904,149.552757 L55.6858257,144.739682 L56.9167904,144.739682 L56.9167904,151.657297 L56.0348348,151.657297 L56.0348348,145.867452 L54.025674,151.657297 L53.2003145,151.657297 L51.2005864,145.768359 L51.2005864,151.657297 L50.3186308,151.657297 Z M61.5529526,151.039147 C61.2385283,151.306542 60.9358996,151.495288 60.6450571,151.605391 C60.3542147,151.715495 60.0421533,151.770546 59.7088637,151.770546 C59.1586212,151.770546 58.735727,151.636064 58.4401682,151.367097 C58.1446094,151.09813 57.9968323,150.754454 57.9968323,150.336061 C57.9968323,150.090687 58.0526417,149.866551 58.1642623,149.663646 C58.2758829,149.460741 58.422088,149.297947 58.6028819,149.175261 C58.7836759,149.052574 58.9872625,148.959774 59.213648,148.896857 C59.3802928,148.852816 59.6318284,148.810348 59.9682624,148.769452 C60.6537072,148.687661 61.1583505,148.590142 61.4822075,148.476893 C61.4853517,148.360498 61.4869238,148.286572 61.4869238,148.255114 C61.4869238,147.909074 61.4067468,147.665277 61.2463905,147.523716 C61.0294378,147.331821 60.7071578,147.235875 60.2795408,147.235875 C59.880222,147.235875 59.5854537,147.305868 59.3952271,147.445857 C59.2050004,147.585846 59.0642977,147.833575 58.9731146,148.189052 L58.1430388,148.075803 C58.2185006,147.720326 58.3426963,147.433275 58.5156297,147.214641 C58.688563,146.996006 58.9385265,146.827708 59.2655277,146.70974 C59.5925289,146.591772 59.9714044,146.532789 60.4021656,146.532789 C60.8297826,146.532789 61.1772162,146.583121 61.4444768,146.683787 C61.7117374,146.784453 61.9082496,146.91107 62.0340192,147.063642 C62.1597889,147.216214 62.2478264,147.408893 62.2981343,147.641683 C62.3264325,147.786391 62.3405813,148.047489 62.3405813,148.424987 L62.3405813,149.557475 C62.3405813,150.347075 62.3586605,150.846466 62.3948193,151.055663 C62.430978,151.264859 62.5025085,151.465402 62.6094127,151.657297 L61.7227408,151.657297 C61.634702,151.481131 61.5781065,151.275083 61.5529526,151.039147 Z M61.4822075,149.14223 C61.1740717,149.268062 60.711875,149.375018 60.0956035,149.463101 C59.7465926,149.513434 59.4997733,149.570058 59.3551382,149.632975 C59.210503,149.695891 59.0988841,149.787905 59.020278,149.909018 C58.941672,150.030132 58.9023695,150.164614 58.9023695,150.312467 C58.9023695,150.538966 58.9880488,150.727712 59.1594101,150.878711 C59.3307713,151.029711 59.5815208,151.105209 59.9116663,151.105209 C60.2386675,151.105209 60.5295055,151.033643 60.7841892,150.890508 C61.0388728,150.747373 61.2259524,150.551549 61.3454336,150.30303 C61.4366166,150.111135 61.4822075,149.828016 61.4822075,149.453664 L61.4822075,149.14223 Z M63.6470075,151.657297 L63.6470075,146.646037 L64.4110546,146.646037 L64.4110546,147.405748 C64.6059976,147.050271 64.7860028,146.815911 64.9510755,146.702662 C65.1161482,146.589412 65.2977255,146.532789 65.4958128,146.532789 C65.7819388,146.532789 66.0727769,146.624016 66.3683357,146.806473 L66.0759226,147.594496 C65.8684026,147.471809 65.6608857,147.410467 65.4533657,147.410467 C65.2678554,147.410467 65.1012131,147.466304 64.9534337,147.577981 C64.8056543,147.689657 64.7003237,147.844586 64.6374389,148.042773 C64.5431116,148.344771 64.4959487,148.675077 64.4959487,149.0337 L64.4959487,151.657297 L63.6470075,151.657297 Z M67.1795461,145.65511 L67.1795461,144.668902 L68.0897997,144.668902 L68.0897997,145.447487 C68.0897997,145.869027 68.0410647,146.172593 67.9435932,146.358197 C67.8083908,146.613008 67.5977297,146.8049 67.3116036,146.933878 L67.1040847,146.59885 C67.2738738,146.529642 67.4004276,146.420327 67.4837501,146.270901 C67.5670725,146.121474 67.6134494,145.916213 67.6228821,145.65511 L67.1795461,145.65511 Z M72.339222,151.657297 L71.4902808,151.657297 L71.4902808,146.244948 C71.2859051,146.439988 71.0178624,146.635026 70.6861449,146.830067 C70.3544273,147.025107 70.0565148,147.171385 69.7923985,147.268906 L69.7923985,146.447852 C70.267179,146.224499 70.6822128,145.953963 71.0375122,145.636235 C71.3928116,145.318508 71.6443472,145.010223 71.7921266,144.71137 L72.339222,144.71137 L72.339222,151.657297 Z M78.9185162,146.433696 L78.0742914,146.499758 C77.9988296,146.166301 77.8919269,145.924077 77.7535803,145.773078 C77.5240506,145.53085 77.241073,145.409738 76.9046391,145.409738 C76.6342342,145.409738 76.3968475,145.485236 76.1924718,145.636235 C75.9252112,145.831276 75.7145501,146.115968 75.5604822,146.49032 C75.4064143,146.864672 75.3262373,147.39788 75.3199489,148.08996 C75.5243246,147.778524 75.7742881,147.54731 76.0698469,147.396311 C76.3654057,147.245311 76.6751089,147.169813 76.9989659,147.169813 C77.5649295,147.169813 78.0467774,147.37822 78.4445241,147.795041 C78.8422707,148.211861 79.0411411,148.750574 79.0411411,149.411196 C79.0411411,149.845318 78.9476013,150.248763 78.7605189,150.621542 C78.5734364,150.994321 78.3163985,151.2798 77.9893973,151.477986 C77.6623961,151.676173 77.291381,151.775264 76.876341,151.775264 C76.1688865,151.775264 75.5919267,151.514952 75.1454443,150.99432 C74.6989619,150.473687 74.475724,149.615679 74.475724,148.420269 C74.475724,147.083297 74.7225433,146.111254 75.2161894,145.504112 C75.6469506,144.975615 76.2270546,144.71137 76.9565188,144.71137 C77.5004728,144.71137 77.9461624,144.86394 78.2936012,145.169084 C78.64104,145.474228 78.8493429,145.895761 78.9185162,146.433696 Z M75.4520064,149.415914 C75.4520064,149.708475 75.5141042,149.988449 75.6383018,150.255843 C75.7624994,150.523237 75.9362162,150.726926 76.1594574,150.866915 C76.3826986,151.006903 76.6169411,151.076897 76.862192,151.076897 C77.2206357,151.076897 77.5287668,150.932191 77.7865947,150.642776 C78.0444225,150.353361 78.1733345,149.96014 78.1733345,149.463101 C78.1733345,148.984937 78.0459946,148.608232 77.791311,148.332973 C77.5366274,148.057714 77.2159195,147.920086 76.8291776,147.920086 C76.4455801,147.920086 76.1201559,148.057714 75.8528953,148.332973 C75.5856347,148.608232 75.4520064,148.969208 75.4520064,149.415914 Z" id="on-15th-Mar’16-Copy" fill="#A9A9A9"></path>
                            <path d="M23.0063062,73.593193 L24.3787612,73.9400175 C24.091063,75.0677925 23.5734498,75.927767 22.8259062,76.5199668 C22.0783626,77.1121666 21.1645809,77.4082621 20.0845336,77.4082621 C18.9667555,77.4082621 18.0576901,77.1805871 17.3573101,76.7252303 C16.6569301,76.2698734 16.123989,75.6104417 15.7584708,74.7469152 C15.3929527,73.8833888 15.2101963,72.9561735 15.2101963,71.9652415 C15.2101963,70.8846538 15.4165341,69.9421028 15.8292159,69.1375604 C16.2418977,68.333018 16.8290762,67.7219525 17.5907689,67.3043454 C18.3524616,66.8867384 19.1907826,66.677938 20.1057572,66.677938 C21.1433571,66.677938 22.0158713,66.9421825 22.7233258,67.4706796 C23.4307804,67.9991767 23.923633,68.7423645 24.2018984,69.7002654 L22.850667,70.0187777 C22.6101325,69.2637819 22.2611268,68.7140588 21.8036395,68.369592 C21.3461523,68.0251251 20.7707646,67.8528943 20.0774591,67.8528943 C19.2803937,67.8528943 18.6142173,68.0439998 18.0789101,68.4262164 C17.5436028,68.808433 17.1674785,69.3215865 16.9505257,69.9656923 C16.733573,70.6097981 16.6250983,71.2739485 16.6250983,71.9581634 C16.6250983,72.8405648 16.7536173,73.6108849 17.0106591,74.2691468 C17.2677009,74.9274088 17.6674067,75.4193284 18.2097885,75.7449203 C18.7521703,76.0705122 19.3393488,76.2333058 19.9713415,76.2333058 C20.7401087,76.2333058 21.3909571,76.0115291 21.9239062,75.5679691 C22.4568553,75.124409 22.8176517,74.4661569 23.0063062,73.593193 Z M25.9068553,77.2313109 L25.9068553,66.8548892 L27.1802671,66.8548892 L27.1802671,70.5779436 C27.7745289,69.88901 28.5244194,69.5445483 29.4299612,69.5445483 C29.9864921,69.5445483 30.4699121,69.654257 30.8802358,69.8736776 C31.2905594,70.0930983 31.5841486,70.3962718 31.7610123,70.7832071 C31.9378759,71.1701424 32.0263064,71.7316621 32.0263064,72.4677831 L32.0263064,77.2313109 L30.7528946,77.2313109 L30.7528946,72.4677831 C30.7528946,71.8307553 30.614943,71.3671477 30.3390358,71.0769462 C30.0631285,70.7867447 29.6728553,70.6416461 29.1682044,70.6416461 C28.7908953,70.6416461 28.4359943,70.7395581 28.1034906,70.9353852 C27.770987,71.1312122 27.5339933,71.3966364 27.3925024,71.7316658 C27.2510115,72.0666952 27.1802671,72.5291232 27.1802671,73.1189637 L27.1802671,77.2313109 L25.9068553,77.2313109 Z M33.4907299,73.4728662 C33.4907299,72.0808427 33.8774659,71.049817 34.6509495,70.3797582 C35.2970914,69.8229488 36.0847122,69.5445483 37.0138359,69.5445483 C38.0467195,69.5445483 38.8909359,69.8831117 39.5465104,70.5602485 C40.2020849,71.2373854 40.5298673,72.1728583 40.5298673,73.3666954 C40.5298673,74.3340338 40.3848413,75.0949166 40.0947849,75.6493666 C39.8047286,76.2038167 39.3826204,76.6343938 38.8284477,76.9411108 C38.2742749,77.2478278 37.6694104,77.4011841 37.0138359,77.4011841 C35.9620868,77.4011841 35.111975,77.0638004 34.463475,76.3890229 C33.8149751,75.7142454 33.4907299,74.7422029 33.4907299,73.4728662 Z M34.7995143,73.4728662 C34.7995143,74.4354858 35.0093893,75.1562601 35.4291456,75.6352105 C35.848902,76.114161 36.3771268,76.3536326 37.0138359,76.3536326 C37.6458286,76.3536326 38.1716952,76.1129813 38.5914516,75.6316715 C39.0112079,75.1503617 39.221083,74.4166111 39.221083,73.4303979 C39.221083,72.5008093 39.0100289,71.7965504 38.5879143,71.3175999 C38.1657998,70.8386494 37.6411122,70.5991778 37.0138359,70.5991778 C36.3771268,70.5991778 35.848902,70.8374698 35.4291456,71.3140609 C35.0093893,71.790652 34.7995143,72.5102465 34.7995143,73.4728662 Z M41.9942908,77.2313109 L41.9942908,66.8548892 L43.2677026,66.8548892 L43.2677026,77.2313109 L41.9942908,77.2313109 Z M50.3846596,74.8106177 L51.7005184,74.9734128 C51.4929984,75.7425648 51.1086206,76.3394744 50.5473733,76.7641595 C49.9861261,77.1888447 49.2692496,77.4011841 48.3967223,77.4011841 C47.2978096,77.4011841 46.4264745,77.0626207 45.7826909,76.3854839 C45.1389073,75.708347 44.8170203,74.7587181 44.8170203,73.5365686 C44.8170203,72.2719507 45.1424445,71.2904709 45.7933027,70.5920997 C46.4441608,69.8937286 47.2883772,69.5445483 48.3259772,69.5445483 C49.3305626,69.5445483 50.1511976,69.8866507 50.7879067,70.5708656 C51.4246157,71.2550805 51.7429655,72.2176857 51.7429655,73.4587101 C51.7429655,73.5342097 51.7406074,73.6474573 51.735891,73.7984565 L46.1328791,73.7984565 C46.1800428,74.6242331 46.4134993,75.2565326 46.8332556,75.695374 C47.253012,76.1342153 47.7765205,76.3536326 48.4037968,76.3536326 C48.8707168,76.3536326 49.2692435,76.2309476 49.599389,75.985574 C49.9295344,75.7402004 50.1912887,75.3485522 50.3846596,74.8106177 Z M46.2036242,72.7509051 L50.3988086,72.7509051 C50.3422123,72.1185961 50.1818583,71.6443715 49.9177419,71.328217 C49.5121347,70.8374697 48.986268,70.5920997 48.3401262,70.5920997 C47.7552972,70.5920997 47.2636236,70.7879238 46.8650909,71.1795779 C46.4665582,71.571232 46.2460715,72.0950025 46.2036242,72.7509051 Z M52.789993,74.9875689 L54.0492557,74.7893835 C54.1200012,75.294287 54.3169064,75.6812165 54.6399773,75.9501838 C54.9630482,76.219151 55.4146332,76.3536326 55.994746,76.3536326 C56.579575,76.3536326 57.013474,76.2344866 57.2964558,75.9961911 C57.5794376,75.7578955 57.7209264,75.4783154 57.7209264,75.1574421 C57.7209264,74.8696 57.5959446,74.6431046 57.3459773,74.4779493 C57.1714719,74.3646999 56.737573,74.220781 56.0442675,74.0461883 C55.1104275,73.8102521 54.4631164,73.6061703 54.1023146,73.4339369 C53.7415127,73.2617035 53.4679678,73.0234115 53.2816714,72.7190538 C53.095375,72.4146962 53.0022283,72.0784921 53.0022283,71.7104317 C53.0022283,71.3754023 53.078868,71.0651509 53.2321498,70.7796681 C53.3854316,70.4941853 53.5941276,70.257073 53.858244,70.068324 C54.0563312,69.9220436 54.326339,69.798179 54.6682753,69.6967264 C55.0102117,69.5952738 55.3769035,69.5445483 55.7683616,69.5445483 C56.3579071,69.5445483 56.8755202,69.6294841 57.3212166,69.7993581 C57.7669129,69.9692322 58.0958743,70.1992665 58.3081107,70.489468 C58.5203471,70.7796695 58.6665521,71.1677787 58.7467303,71.6538073 L57.5016166,71.8236805 C57.4450202,71.4367451 57.281129,71.1347513 57.0099381,70.9176901 C56.7387472,70.7006288 56.3555484,70.5920997 55.8603303,70.5920997 C55.2755012,70.5920997 54.8581093,70.6888321 54.608142,70.8822998 C54.3581747,71.0757675 54.233193,71.3022628 54.233193,71.5617926 C54.233193,71.726948 54.2850722,71.8755855 54.3888322,72.0077098 C54.4925922,72.1445528 54.6553043,72.2578004 54.8769734,72.3474562 C55.0043152,72.3946434 55.3792605,72.5031725 56.0018205,72.6730465 C56.9026459,72.9137014 57.5310919,73.1107052 57.8871774,73.2640637 C58.2432628,73.4174222 58.5227031,73.6403786 58.7255068,73.9329394 C58.9283104,74.2255003 59.0297107,74.5888366 59.0297107,75.0229592 C59.0297107,75.4476443 58.905908,75.8475502 58.6582989,76.2226887 C58.4106899,76.5978272 58.0534307,76.8880244 57.5865107,77.0932889 C57.1195907,77.2985534 56.5913659,77.4011841 56.0018205,77.4011841 C55.0255332,77.4011841 54.281538,77.198282 53.7698126,76.7924717 C53.2580871,76.3866615 52.9314839,75.7850332 52.789993,74.9875689 Z M63.3239382,76.0917448 L63.5078755,77.2171548 C63.1494319,77.2926543 62.8287239,77.3304036 62.5457421,77.3304036 C62.0835385,77.3304036 61.7251003,77.2572644 61.4704166,77.110984 C61.215733,76.9647036 61.0365139,76.7724185 60.9327539,76.5341229 C60.8289939,76.2958274 60.7771147,75.7944705 60.7771147,75.0300372 L60.7771147,70.7053485 L59.8432793,70.7053485 L59.8432793,69.7144215 L60.7771147,69.7144215 L60.7771147,67.8528943 L62.0434519,67.0884649 L62.0434519,69.7144215 L63.3239382,69.7144215 L63.3239382,70.7053485 L62.0434519,70.7053485 L62.0434519,75.1008177 C62.0434519,75.4641595 62.0658543,75.6977328 62.1106598,75.8015447 C62.1554652,75.9053566 62.2285678,75.9879331 62.3299696,76.0492765 C62.4313714,76.1106199 62.5763974,76.1412911 62.7650519,76.1412911 C62.9065428,76.1412911 63.0928364,76.1247758 63.3239382,76.0917448 Z M69.7122207,74.8106177 L71.0280795,74.9734128 C70.8205595,75.7425648 70.4361817,76.3394744 69.8749344,76.7641595 C69.3136871,77.1888447 68.5968106,77.4011841 67.7242834,77.4011841 C66.6253707,77.4011841 65.7540356,77.0626207 65.110252,76.3854839 C64.4664684,75.708347 64.1445814,74.7587181 64.1445814,73.5365686 C64.1445814,72.2719507 64.4700056,71.2904709 65.1208637,70.5920997 C65.7717219,69.8937286 66.6159383,69.5445483 67.6535383,69.5445483 C68.6581237,69.5445483 69.4787587,69.8866507 70.1154677,70.5708656 C70.7521768,71.2550805 71.0705266,72.2176857 71.0705266,73.4587101 C71.0705266,73.5342097 71.0681684,73.6474573 71.0634521,73.7984565 L65.4604402,73.7984565 C65.5076039,74.6242331 65.7410603,75.2565326 66.1608167,75.695374 C66.5805731,76.1342153 67.1040815,76.3536326 67.7313579,76.3536326 C68.1982779,76.3536326 68.5968046,76.2309476 68.9269501,75.985574 C69.2570955,75.7402004 69.5188498,75.3485522 69.7122207,74.8106177 Z M65.5311853,72.7509051 L69.7263697,72.7509051 C69.6697733,72.1185961 69.5094194,71.6443715 69.245303,71.328217 C68.8396958,70.8374697 68.3138291,70.5920997 67.6676873,70.5920997 C67.0828582,70.5920997 66.5911847,70.7879238 66.192652,71.1795779 C65.7941193,71.571232 65.5736326,72.0950025 65.5311853,72.7509051 Z M72.6127697,77.2313109 L72.6127697,69.7144215 L73.7588403,69.7144215 L73.7588403,70.8539876 C74.0512549,70.3207718 74.3212626,69.9692322 74.5688717,69.7993581 C74.8164808,69.6294841 75.0888467,69.5445483 75.3859776,69.5445483 C75.8151667,69.5445483 76.2514238,69.6813892 76.694762,69.9550752 L76.2561423,71.1371096 C75.9448623,70.9530794 75.633587,70.8610657 75.322307,70.8610657 C75.0440416,70.8610657 74.7940781,70.9448217 74.572409,71.1123364 C74.3507399,71.2798511 74.1927441,71.5122448 74.0984168,71.8095244 C73.9569259,72.2625219 73.8861815,72.7579804 73.8861815,73.2959149 L73.8861815,77.2313109 L72.6127697,77.2313109 Z M76.9777424,73.4728662 C76.9777424,72.0808427 77.3644784,71.049817 78.137962,70.3797582 C78.7841038,69.8229488 79.5717247,69.5445483 80.5008483,69.5445483 C81.5337319,69.5445483 82.3779483,69.8831117 83.0335228,70.5602485 C83.6890974,71.2373854 84.0168797,72.1728583 84.0168797,73.3666954 C84.0168797,74.3340338 83.8718537,75.0949166 83.5817974,75.6493666 C83.291741,76.2038167 82.8696328,76.6343938 82.3154601,76.9411108 C81.7612874,77.2478278 81.1564228,77.4011841 80.5008483,77.4011841 C79.4490992,77.4011841 78.5989875,77.0638004 77.9504875,76.3890229 C77.3019875,75.7142454 76.9777424,74.7422029 76.9777424,73.4728662 Z M78.2865267,73.4728662 C78.2865267,74.4354858 78.4964017,75.1562601 78.9161581,75.6352105 C79.3359144,76.114161 79.8641392,76.3536326 80.5008483,76.3536326 C81.132841,76.3536326 81.6587076,76.1129813 82.078464,75.6316715 C82.4982204,75.1503617 82.7080954,74.4166111 82.7080954,73.4303979 C82.7080954,72.5008093 82.4970413,71.7965504 82.0749267,71.3175999 C81.6528122,70.8386494 81.1281246,70.5991778 80.5008483,70.5991778 C79.8641392,70.5991778 79.3359144,70.8374698 78.9161581,71.3140609 C78.4964017,71.790652 78.2865267,72.5102465 78.2865267,73.4728662 Z M85.4813033,77.2313109 L85.4813033,66.8548892 L86.7547151,66.8548892 L86.7547151,77.2313109 L85.4813033,77.2313109 Z" id="Cholesterol" fill="#4A4A4A"></path>
                            <path d="M18.2451611,135.5508 L18.2451611,126.398881 L14.8281728,126.398881 L14.8281728,125.174379 L23.0487533,125.174379 L23.0487533,126.398881 L19.617616,126.398881 L19.617616,135.5508 L18.2451611,135.5508 Z M23.9896631,132.217039 L25.2842984,132.10379 C25.3456112,132.62285 25.488279,133.048708 25.7123063,133.381378 C25.9363335,133.714048 26.2841601,133.983011 26.7557965,134.188276 C27.2274328,134.39354 27.7580158,134.496171 28.3475612,134.496171 C28.8710776,134.496171 29.3332743,134.418313 29.7341652,134.262595 C30.1350561,134.106877 30.4333616,133.893358 30.6290907,133.622032 C30.8248198,133.350705 30.9226828,133.05461 30.9226828,132.733736 C30.9226828,132.408144 30.828357,132.123846 30.6397024,131.880831 C30.4510479,131.637817 30.1397726,131.433735 29.7058671,131.26858 C29.4276017,131.160049 28.8121255,130.991357 27.85942,130.762499 C26.9067146,130.533641 26.2393592,130.317763 25.8573337,130.114858 C25.3621156,129.855328 24.9930656,129.53328 24.7501729,129.148704 C24.5072802,128.764128 24.3858357,128.333551 24.3858357,127.85696 C24.3858357,127.333181 24.5343989,126.843621 24.8315298,126.388264 C25.1286607,125.932908 25.5625596,125.587266 26.1332396,125.35133 C26.7039196,125.115394 27.338261,124.997427 28.0362828,124.997427 C28.80505,124.997427 29.4830171,125.121292 30.0702044,125.369025 C30.6573916,125.616758 31.1089767,125.981274 31.424973,126.462584 C31.7409694,126.943894 31.9107559,127.488898 31.9343377,128.097613 L30.6184789,128.196706 C30.5477334,127.540804 30.3083816,127.045345 29.9004161,126.710316 C29.4924507,126.375286 28.8899443,126.207774 28.0928789,126.207774 C27.2627989,126.207774 26.6579343,126.359951 26.2782671,126.664308 C25.8985998,126.968666 25.708769,127.335541 25.708769,127.764945 C25.708769,128.137724 25.8431834,128.444437 26.1120161,128.685092 C26.3761324,128.925747 27.0658903,129.172296 28.1813102,129.424748 C29.2967302,129.6772 30.0619487,129.897797 30.4769887,130.086546 C31.0806832,130.36495 31.5263729,130.71767 31.8140711,131.144714 C32.1017692,131.571759 32.2456162,132.063678 32.2456162,132.620488 C32.2456162,133.172578 32.0876204,133.69281 31.771624,134.181198 C31.4556277,134.669586 31.0016845,135.049437 30.4097809,135.320764 C29.8178772,135.59209 29.1517009,135.727752 28.4112318,135.727752 C27.4726755,135.727752 26.6862336,135.590911 26.0518828,135.317225 C25.4175319,135.043539 24.919963,134.631836 24.5591612,134.082105 C24.1983594,133.532374 24.0085286,132.910691 23.9896631,132.217039 Z M34.1628084,135.5508 L34.1628084,125.174379 L35.5352633,125.174379 L35.5352633,129.435365 L40.9260398,129.435365 L40.9260398,125.174379 L42.2984948,125.174379 L42.2984948,135.5508 L40.9260398,135.5508 L40.9260398,130.659868 L35.5352633,130.659868 L35.5352633,135.5508 L34.1628084,135.5508 Z" id="TSH" fill="#4A4A4A"></path>
                            <path d="M48.905301,38.8236427 L48.905301,24.9884138 L51.6973742,24.9884138 L51.6973742,30.4337938 L57.1683285,30.4337938 L57.1683285,24.9884138 L59.9604018,24.9884138 L59.9604018,38.8236427 L57.1683285,38.8236427 L57.1683285,32.7742691 L51.6973742,32.7742691 L51.6973742,38.8236427 L48.905301,38.8236427 Z M68.6290346,35.6338014 L71.270185,36.0773592 C70.9306068,37.0462705 70.3945215,37.7839532 69.661913,38.2904295 C68.9293046,38.7969059 68.0127717,39.0501403 66.9122869,39.0501403 C65.1703766,39.0501403 63.8812566,38.4807561 63.0448881,37.3419708 C62.3845972,36.4296842 62.0544567,35.2783329 62.0544567,33.8878823 C62.0544567,32.2268916 62.4883557,30.9261162 63.3561665,29.9855173 C64.2239774,29.0449184 65.3213016,28.5746259 66.6481718,28.5746259 C68.1385427,28.5746259 69.3144717,29.0669387 70.1759941,30.0515791 C71.0375165,31.0362194 71.4494061,32.5446155 71.4116752,34.5768125 L64.7710685,34.5768125 C64.789934,35.3632665 65.0037393,35.9751185 65.4124908,36.4123869 C65.8212423,36.8496553 66.3306019,37.0682862 66.9405849,37.0682862 C67.3556249,37.0682862 67.7046306,36.9550385 67.9876124,36.7285398 C68.2705942,36.5020411 68.4843995,36.1371319 68.6290346,35.6338014 Z M68.7799575,32.9535797 C68.761092,32.1860006 68.5630077,31.6024605 68.1856986,31.2029419 C67.8083896,30.8034233 67.3493371,30.603667 66.8085274,30.603667 C66.2299868,30.603667 65.7520691,30.8144335 65.37476,31.2359728 C64.997451,31.6575121 64.8119434,32.230042 64.8182319,32.9535797 L68.7799575,32.9535797 Z M75.5526216,31.8588412 L73.1472883,31.4247208 C73.4176931,30.4558096 73.883034,29.7385743 74.5433249,29.2729936 C75.2036158,28.8074128 76.1846047,28.5746259 77.486321,28.5746259 C78.6685561,28.5746259 79.5489308,28.7146126 80.1274714,28.9945903 C80.706012,29.2745679 81.1131852,29.6300397 81.3490034,30.0610165 C81.5848216,30.4919933 81.7027289,31.2831541 81.7027289,32.4345227 L81.6744309,35.52999 C81.6744309,36.4108184 81.7168775,37.0604196 81.8017721,37.4788131 C81.8866666,37.8972066 82.0454485,38.3454787 82.2781224,38.8236427 L79.6558374,38.8236427 C79.5866641,38.647477 79.5017708,38.3863782 79.401155,38.0403384 C79.3571356,37.8830476 79.3256937,37.7792373 79.3068282,37.7289042 C78.8540573,38.1693184 78.3698513,38.4996242 77.8541955,38.7198313 C77.3385398,38.9400384 76.7883056,39.0501403 76.2034765,39.0501403 C75.1721651,39.0501403 74.3593906,38.7701669 73.7651288,38.2102116 C73.170867,37.6502564 72.8737405,36.9424585 72.8737405,36.0867966 C72.8737405,35.5205497 73.0089409,35.0156539 73.2793458,34.5720938 C73.5497506,34.1285338 73.9286261,33.7887908 74.4159837,33.5528546 C74.9033413,33.3169184 75.6060689,33.1108706 76.5241877,32.9347049 C77.7630191,32.7019145 78.6213844,32.4848565 79.0993093,32.2835243 L79.0993093,32.0192771 C79.0993093,31.5096549 78.9735415,31.1463186 78.7220021,30.9292573 C78.4704627,30.712196 77.9956892,30.603667 77.2976674,30.603667 C76.8260311,30.603667 76.4581602,30.6964672 76.1940439,30.8820703 C75.9299275,31.0676734 75.7161222,31.3932605 75.5526216,31.8588412 Z M79.0993093,34.0105685 C78.7597311,34.1238179 78.2220737,34.2590859 77.486321,34.4163767 C76.7505683,34.5736675 76.2695064,34.7278102 76.043121,34.8788093 C75.6972543,35.124183 75.5243236,35.4356141 75.5243236,35.813112 C75.5243236,36.1843182 75.6626682,36.5051866 75.9393615,36.7757268 C76.2160548,37.046267 76.5682047,37.181535 76.9958217,37.181535 C77.4737465,37.181535 77.9296548,37.0242466 78.3635602,36.709665 C78.684273,36.470583 78.894934,36.1780265 78.9955498,35.8319868 C79.0647231,35.605488 79.0993093,35.1745177 79.0993093,34.5390629 L79.0993093,34.0105685 Z M84.3155812,38.8236427 L84.3155812,24.9884138 L86.9661643,24.9884138 L86.9661643,38.8236427 L84.3155812,38.8236427 Z M94.2764912,28.8011235 L94.2764912,30.9151012 L92.4654167,30.9151012 L92.4654167,34.9543085 C92.4654167,35.7722207 92.4827097,36.2488046 92.5172964,36.3840747 C92.5518831,36.5193448 92.6304879,36.6310196 92.7531134,36.7191024 C92.8757389,36.8071852 93.0250881,36.851226 93.2011657,36.851226 C93.4464166,36.851226 93.8017107,36.7662902 94.2670585,36.5964162 L94.4934428,38.6537695 C93.8771713,38.918018 93.17916,39.0501403 92.3993879,39.0501403 C91.9214631,39.0501403 91.4907083,38.9699232 91.1071108,38.8094866 C90.7235132,38.64905 90.4421077,38.4414292 90.2628859,38.1866181 C90.0836641,37.9318071 89.9594684,37.5873454 89.8902951,37.1532228 C89.8336987,36.8449329 89.8054009,36.2220707 89.8054009,35.2846176 L89.8054009,30.9151012 L88.5885852,30.9151012 L88.5885852,28.8011235 L89.8054009,28.8011235 L89.8054009,26.8098321 L92.4654167,25.2620984 L92.4654167,28.8011235 L94.2764912,28.8011235 Z M98.7570141,24.9884138 L98.7570141,30.0751726 C99.6122481,29.0748032 100.634112,28.5746259 101.822635,28.5746259 C102.432618,28.5746259 102.982852,28.6878736 103.473354,28.9143724 C103.963856,29.1408711 104.333299,29.4302818 104.581694,29.7826132 C104.830089,30.1349446 104.999876,30.5250199 105.091059,30.9528508 C105.182242,31.3806818 105.227833,32.044439 105.227833,32.9441423 L105.227833,38.8236427 L102.577249,38.8236427 L102.577249,33.5292611 C102.577249,32.4785586 102.526942,31.8116557 102.426327,31.5285322 C102.325711,31.2454088 102.148064,31.0204864 101.89338,30.8537581 C101.638697,30.6870299 101.319561,30.603667 100.935963,30.603667 C100.495769,30.603667 100.102745,30.7106231 99.7568782,30.9245386 C99.4110116,31.1384541 99.1579038,31.4608954 98.9975475,31.8918721 C98.8371911,32.3228489 98.7570141,32.9598671 98.7570141,33.8029457 L98.7570141,38.8236427 L96.1064311,38.8236427 L96.1064311,24.9884138 L98.7570141,24.9884138 Z M116.414991,38.8236427 L116.414991,27.3288891 L112.311775,27.3288891 L112.311775,24.9884138 L123.300847,24.9884138 L123.300847,27.3288891 L119.207064,27.3288891 L119.207064,38.8236427 L116.414991,38.8236427 Z M126.555122,38.8236427 L123.904539,38.8236427 L123.904539,28.8011235 L126.366468,28.8011235 L126.366468,30.226171 C126.787797,29.5529664 127.166672,29.109413 127.503106,28.8954976 C127.83954,28.6815821 128.22156,28.5746259 128.649177,28.5746259 C129.252871,28.5746259 129.834547,28.7413517 130.394222,29.0748082 L129.573579,31.3869712 C129.127097,31.0975562 128.712063,30.9528508 128.328466,30.9528508 C127.957445,30.9528508 127.643025,31.0550883 127.385198,31.2595663 C127.12737,31.4640444 126.924569,31.8336722 126.77679,32.3684609 C126.62901,32.9032496 126.555122,34.0231432 126.555122,35.7281754 L126.555122,38.8236427 Z M133.51644,31.8588412 L131.111106,31.4247208 C131.381511,30.4558096 131.846852,29.7385743 132.507143,29.2729936 C133.167434,28.8074128 134.148423,28.5746259 135.450139,28.5746259 C136.632374,28.5746259 137.512749,28.7146126 138.091289,28.9945903 C138.66983,29.2745679 139.077003,29.6300397 139.312821,30.0610165 C139.548639,30.4919933 139.666547,31.2831541 139.666547,32.4345227 L139.638249,35.52999 C139.638249,36.4108184 139.680695,37.0604196 139.76559,37.4788131 C139.850484,37.8972066 140.009266,38.3454787 140.24194,38.8236427 L137.619655,38.8236427 C137.550482,38.647477 137.465589,38.3863782 137.364973,38.0403384 C137.320954,37.8830476 137.289512,37.7792373 137.270646,37.7289042 C136.817875,38.1693184 136.333669,38.4996242 135.818013,38.7198313 C135.302358,38.9400384 134.752124,39.0501403 134.167294,39.0501403 C133.135983,39.0501403 132.323208,38.7701669 131.728947,38.2102116 C131.134685,37.6502564 130.837558,36.9424585 130.837558,36.0867966 C130.837558,35.5205497 130.972759,35.0156539 131.243164,34.5720938 C131.513569,34.1285338 131.892444,33.7887908 132.379802,33.5528546 C132.867159,33.3169184 133.569887,33.1108706 134.488006,32.9347049 C135.726837,32.7019145 136.585202,32.4848565 137.063127,32.2835243 L137.063127,32.0192771 C137.063127,31.5096549 136.937359,31.1463186 136.68582,30.9292573 C136.434281,30.712196 135.959507,30.603667 135.261485,30.603667 C134.789849,30.603667 134.421978,30.6964672 134.157862,30.8820703 C133.893745,31.0676734 133.67994,31.3932605 133.51644,31.8588412 Z M137.063127,34.0105685 C136.723549,34.1238179 136.185892,34.2590859 135.450139,34.4163767 C134.714386,34.5736675 134.233324,34.7278102 134.006939,34.8788093 C133.661072,35.124183 133.488141,35.4356141 133.488141,35.813112 C133.488141,36.1843182 133.626486,36.5051866 133.903179,36.7757268 C134.179873,37.046267 134.532023,37.181535 134.95964,37.181535 C135.437564,37.181535 135.893473,37.0242466 136.327378,36.709665 C136.648091,36.470583 136.858752,36.1780265 136.959368,35.8319868 C137.028541,35.605488 137.063127,35.1745177 137.063127,34.5390629 L137.063127,34.0105685 Z M151.014061,31.7644672 L148.401208,32.2363373 C148.31317,31.7141318 148.113513,31.3209107 147.802233,31.0566622 C147.490953,30.7924137 147.086924,30.6602914 146.590134,30.6602914 C145.929843,30.6602914 145.40319,30.8883596 145.01016,31.3445029 C144.61713,31.8006462 144.420617,32.5634951 144.420617,33.6330725 C144.420617,34.8221909 144.620274,35.6621111 145.019593,36.1528584 C145.418911,36.6436056 145.954997,36.8889756 146.627865,36.8889756 C147.130943,36.8889756 147.542833,36.7458431 147.863546,36.4595739 C148.184258,36.1733046 148.41064,35.6809919 148.542699,34.9826207 L151.146118,35.4261786 C150.875713,36.6215886 150.356921,37.5244242 149.589726,38.1347124 C148.822531,38.7450007 147.794379,39.0501403 146.50524,39.0501403 C145.040023,39.0501403 143.871954,38.5877123 143.000999,37.6628424 C142.130044,36.7379726 141.694573,35.4576447 141.694573,33.8218205 C141.694573,32.1671214 142.131616,30.8789291 143.005715,29.9572051 C143.879815,29.035481 145.062032,28.5746259 146.552403,28.5746259 C147.772369,28.5746259 148.742353,28.8372976 149.462385,29.3626489 C150.182416,29.8880001 150.699636,30.6885982 151.014061,31.7644672 Z M152.928895,38.8236427 L152.928895,24.9884138 L155.579478,24.9884138 L155.579478,32.3307113 L158.682829,28.8011235 L161.946537,28.8011235 L158.522474,32.4628349 L162.191786,38.8236427 L159.333684,38.8236427 L156.815159,34.3220027 L155.579478,35.6149266 L155.579478,38.8236427 L152.928895,38.8236427 Z M169.568142,35.6338014 L172.209292,36.0773592 C171.869714,37.0462705 171.333629,37.7839532 170.60102,38.2904295 C169.868412,38.7969059 168.951879,39.0501403 167.851394,39.0501403 C166.109484,39.0501403 164.820364,38.4807561 163.983996,37.3419708 C163.323705,36.4296842 162.993564,35.2783329 162.993564,33.8878823 C162.993564,32.2268916 163.427463,30.9261162 164.295274,29.9855173 C165.163085,29.0449184 166.260409,28.5746259 167.587279,28.5746259 C169.07765,28.5746259 170.253579,29.0669387 171.115102,30.0515791 C171.976624,31.0362194 172.388514,32.5446155 172.350783,34.5768125 L165.710176,34.5768125 C165.729041,35.3632665 165.942847,35.9751185 166.351598,36.4123869 C166.76035,36.8496553 167.269709,37.0682862 167.879692,37.0682862 C168.294732,37.0682862 168.643738,36.9550385 168.92672,36.7285398 C169.209702,36.5020411 169.423507,36.1371319 169.568142,35.6338014 Z M169.719065,32.9535797 C169.700199,32.1860006 169.502115,31.6024605 169.124806,31.2029419 C168.747497,30.8034233 168.288444,30.603667 167.747635,30.603667 C167.169094,30.603667 166.691177,30.8144335 166.313867,31.2359728 C165.936558,31.6575121 165.751051,32.230042 165.757339,32.9535797 L169.719065,32.9535797 Z M177.048257,38.8236427 L174.397674,38.8236427 L174.397674,28.8011235 L176.859604,28.8011235 L176.859604,30.226171 C177.280932,29.5529664 177.659808,29.109413 177.996242,28.8954976 C178.332675,28.6815821 178.714695,28.5746259 179.142312,28.5746259 C179.746007,28.5746259 180.327683,28.7413517 180.887358,29.0748082 L180.066715,31.3869712 C179.620232,31.0975562 179.205199,30.9528508 178.821601,30.9528508 C178.45058,30.9528508 178.136161,31.0550883 177.878333,31.2595663 C177.620505,31.4640444 177.417705,31.8336722 177.269925,32.3684609 C177.122146,32.9032496 177.048257,34.0231432 177.048257,35.7281754 L177.048257,38.8236427 Z M181.094877,35.9641104 L183.754893,35.5583022 C183.868085,36.074216 184.097612,36.4658642 184.443478,36.7332585 C184.789345,37.0006528 185.273551,37.134348 185.896111,37.134348 C186.581556,37.134348 187.097204,37.0085173 187.44307,36.756852 C187.675744,36.5806863 187.79208,36.3447537 187.79208,36.049047 C187.79208,35.8477148 187.729196,35.680989 187.603426,35.5488648 C187.471368,35.4230321 187.175813,35.3066387 186.716754,35.199681 C184.578669,34.7278086 183.223521,34.2968383 182.651269,33.9067571 C181.85892,33.3656768 181.462751,32.6138381 181.462751,31.6512184 C181.462751,30.7829733 181.805469,30.0531549 182.490913,29.4617416 C183.176358,28.8703282 184.239096,28.5746259 185.679159,28.5746259 C187.050049,28.5746259 188.068768,28.7979755 188.735348,29.2446814 C189.401927,29.6913872 189.860979,30.3519986 190.112519,31.2265354 L187.612859,31.688968 C187.505954,31.2988869 187.303154,31.0000389 187.004451,30.792415 C186.705748,30.5847912 186.279709,30.4809808 185.726323,30.4809808 C185.028301,30.4809808 184.528374,30.5784996 184.226527,30.7735402 C184.025295,30.9119561 183.924681,31.0912649 183.924681,31.311472 C183.924681,31.500221 184.012718,31.6606552 184.188796,31.7927794 C184.427758,31.9689451 185.253109,32.2174609 186.664874,32.5383341 C188.076639,32.8592073 189.062344,33.2524284 189.622019,33.7180091 C190.175406,34.1898815 190.452095,34.8473471 190.452095,35.6904258 C190.452095,36.609004 190.068503,37.3985919 189.301308,38.0592132 C188.534113,38.7198346 187.399059,39.0501403 185.896111,39.0501403 C184.53151,39.0501403 183.451479,38.7733126 182.655985,38.219649 C181.860492,37.6659855 181.340128,36.9141468 181.094877,35.9641104 Z" id="Health-Trackers" fill="#4A4A4A"></path>
                            <path d="M173.421392,75.6206612 L172.00649,75.6206612 L172.00649,66.6000794 C171.665864,66.9251471 171.219126,67.2502098 170.666263,67.5752774 C170.113401,67.9003451 169.61688,68.1441422 169.176686,68.306676 L169.176686,66.9382529 C169.967987,66.5659981 170.65971,66.1151046 171.251875,65.5855589 C171.844041,65.0560132 172.263267,64.5422043 172.509566,64.0441168 L173.421392,64.0441168 L173.421392,75.6206612 Z M184.386882,66.9146594 L182.979841,67.0247624 C182.854071,66.4690016 182.6759,66.0652947 182.445322,65.8136294 C182.062773,65.4099164 181.591143,65.2080629 181.03042,65.2080629 C180.579745,65.2080629 180.184101,65.3338936 179.843475,65.5855589 C179.39804,65.9106265 179.046939,66.3851133 178.790159,67.0090334 C178.533379,67.6329536 178.399751,68.5216332 178.38927,69.675099 C178.729896,69.1560394 179.146502,68.7706827 179.6391,68.5190175 C180.131698,68.2673522 180.64787,68.1415215 181.187632,68.1415215 C182.130904,68.1415215 182.933984,68.4888668 183.596895,69.1835677 C184.259806,69.8782687 184.591257,70.7761235 184.591257,71.8771591 C184.591257,72.6006967 184.435357,73.2731048 184.123553,73.8944034 C183.811749,74.515702 183.383353,74.9914995 182.838351,75.3218102 C182.293349,75.6521209 181.67499,75.8172737 180.983257,75.8172737 C179.804166,75.8172737 178.842566,75.3834198 178.098429,74.5156989 C177.354292,73.6479781 176.982228,72.2179641 176.982228,70.225614 C176.982228,67.9973278 177.393594,66.377257 178.216337,65.3653529 C178.934273,64.4845244 179.901113,64.0441168 181.116886,64.0441168 C182.023476,64.0441168 182.766292,64.2983998 183.345357,64.8069734 C183.924422,65.3155469 184.271593,66.0181019 184.386882,66.9146594 Z M178.609366,71.8850236 C178.609366,72.372625 178.712862,72.8392474 178.919858,73.2849046 C179.126854,73.7305619 179.416382,74.0700427 179.788451,74.3033574 C180.160519,74.5366721 180.550924,74.6533277 180.959675,74.6533277 C181.557081,74.6533277 182.070633,74.4121521 182.500346,73.9297936 C182.930059,73.4474352 183.144913,72.7920668 183.144913,71.9636686 C183.144913,71.1667286 182.932679,70.5388856 182.508207,70.0801208 C182.083734,69.621356 181.549221,69.391977 180.904651,69.391977 C180.265322,69.391977 179.722948,69.621356 179.277514,70.0801208 C178.83208,70.5388856 178.609366,71.1405138 178.609366,71.8850236 Z M193.434394,74.2601027 L193.434394,75.6206612 L185.817505,75.6206612 C185.807024,75.2798645 185.862048,74.9521803 185.982577,74.6375987 C186.176472,74.1185391 186.486961,73.6073517 186.914054,73.1040211 C187.341147,72.6006906 187.958195,72.0187234 188.765218,71.3581021 C190.017674,70.3304689 190.863987,69.5165013 191.304181,68.9161747 C191.744375,68.3158482 191.964468,67.7482991 191.964468,67.2135104 C191.964468,66.6525066 191.764026,66.1793306 191.363135,65.7939681 C190.962244,65.4086057 190.439522,65.2159274 189.794952,65.2159274 C189.113699,65.2159274 188.568706,65.4204023 188.159954,65.8293584 C187.751203,66.2383145 187.54421,66.8045528 187.538969,67.5280904 L186.084765,67.3786649 C186.184332,66.2933585 186.559015,65.4662835 187.208826,64.8974151 C187.858636,64.3285468 188.73115,64.0441168 189.826394,64.0441168 C190.932119,64.0441168 191.807254,64.3508293 192.451823,64.9642634 C193.096393,65.5776975 193.418673,66.3379249 193.418673,67.2449684 C193.418673,67.7063548 193.324347,68.1598697 193.135693,68.605527 C192.947038,69.0511842 192.633929,69.520428 192.196355,70.0132725 C191.758781,70.506117 191.031686,71.1824573 190.015048,72.0423136 C189.166102,72.7553652 188.621109,73.2390271 188.38005,73.4933139 C188.138991,73.7476007 187.939859,74.0031944 187.782647,74.2601027 L193.434394,74.2601027 Z" id="162" fill="#4A4A4A"></path>
                            <path d="M167.09827,132.556095 L168.388576,132.446766 C168.484154,133.075413 168.70603,133.548031 169.054209,133.864632 C169.402389,134.181234 169.822246,134.339532 170.313793,134.339532 C170.905471,134.339532 171.406113,134.11632 171.815736,133.669889 C172.225359,133.223458 172.430167,132.631263 172.430167,131.893286 C172.430167,131.191752 172.233324,130.638277 171.839631,130.232845 C171.445938,129.827413 170.930503,129.6247 170.293312,129.6247 C169.897343,129.6247 169.540067,129.714668 169.221471,129.894607 C168.902876,130.074546 168.652554,130.308007 168.4705,130.594999 L167.316734,130.444671 L168.28617,125.299353 L173.263063,125.299353 L173.263063,126.474645 L169.26926,126.474645 L168.729926,129.166883 C169.330706,128.747784 169.961061,128.538238 170.621009,128.538238 C171.494871,128.538238 172.232181,128.841169 172.832961,129.447039 C173.433741,130.05291 173.734127,130.831874 173.734127,131.783956 C173.734127,132.690484 173.470152,133.474004 172.942193,134.134539 C172.300451,134.945403 171.424326,135.350829 170.313793,135.350829 C169.40352,135.350829 168.660521,135.09573 168.084773,134.585523 C167.509026,134.075317 167.180195,133.398847 167.09827,132.556095 Z M175.563767,135.180002 L175.563767,133.779219 L176.963304,133.779219 L176.963304,135.180002 L175.563767,135.180002 Z M178.758809,132.556095 L180.049114,132.446766 C180.144693,133.075413 180.366569,133.548031 180.714748,133.864632 C181.062927,134.181234 181.482785,134.339532 181.974332,134.339532 C182.566009,134.339532 183.066652,134.11632 183.476275,133.669889 C183.885898,133.223458 184.090706,132.631263 184.090706,131.893286 C184.090706,131.191752 183.893863,130.638277 183.500169,130.232845 C183.106476,129.827413 182.591042,129.6247 181.953851,129.6247 C181.557882,129.6247 181.200605,129.714668 180.88201,129.894607 C180.563414,130.074546 180.313093,130.308007 180.131038,130.594999 L178.977273,130.444671 L179.946709,125.299353 L184.923602,125.299353 L184.923602,126.474645 L180.929799,126.474645 L180.390465,129.166883 C180.991245,128.747784 181.6216,128.538238 182.281548,128.538238 C183.15541,128.538238 183.89272,128.841169 184.4935,129.447039 C185.09428,130.05291 185.394666,130.831874 185.394666,131.783956 C185.394666,132.690484 185.13069,133.474004 184.602732,134.134539 C183.96099,134.945403 183.084865,135.350829 181.974332,135.350829 C181.064059,135.350829 180.32106,135.09573 179.745312,134.585523 C179.169564,134.075317 178.840733,133.398847 178.758809,132.556095 Z" id="5.5" fill="#4A4A4A"></path>
                            <path d="M202.77825,76.425986 L202.77825,70.5795165 L203.664136,70.5795165 L203.664136,71.3997839 C203.84755,71.1135147 204.091487,70.8832182 204.395954,70.7088876 C204.700422,70.5345569 205.047069,70.4473929 205.435907,70.4473929 C205.868765,70.4473929 206.223666,70.5373095 206.500621,70.7171453 C206.777576,70.8969811 206.972909,71.1483804 207.086626,71.4713509 C207.54883,70.7887088 208.150419,70.4473929 208.891412,70.4473929 C209.471001,70.4473929 209.916691,70.6079582 210.228495,70.9290936 C210.540299,71.2502289 210.696198,71.74477 210.696198,72.4127316 L210.696198,76.425986 L209.711269,76.425986 L209.711269,72.7430406 C209.711269,72.3466678 209.679172,72.0613203 209.614977,71.8869897 C209.550783,71.7126591 209.434316,71.5722792 209.265575,71.4658457 C209.096834,71.3594123 208.89875,71.3061964 208.671316,71.3061964 C208.260469,71.3061964 207.919324,71.4429062 207.647871,71.7163301 C207.376418,71.9897539 207.240693,72.4274089 207.240693,73.0293084 L207.240693,76.425986 L206.250262,76.425986 L206.250262,72.6274324 C206.250262,72.1870182 206.169561,71.8567125 206.008157,71.6365054 C205.846752,71.4162983 205.58264,71.3061964 205.215811,71.3061964 C204.937022,71.3061964 204.679329,71.3795976 204.442725,71.5264024 C204.20612,71.6732071 204.034631,71.8879058 203.928251,72.1705049 C203.82187,72.4531041 203.768681,72.8604811 203.768681,73.3926483 L203.768681,76.425986 L202.77825,76.425986 Z M211.983759,76.9104392 L212.946679,77.0535731 C212.98703,77.3508527 213.098911,77.5673865 213.282325,77.7031809 C213.5281,77.8866868 213.863743,77.9784384 214.289263,77.9784384 C214.747799,77.9784384 215.101783,77.8866868 215.351226,77.7031809 C215.600669,77.5196749 215.769408,77.2627705 215.857446,76.9324598 C215.908802,76.7306033 215.932646,76.306711 215.928978,75.6607702 C215.49612,76.1709166 214.956891,76.425986 214.311273,76.425986 C213.507919,76.425986 212.886154,76.136051 212.445961,75.5561723 C212.005767,74.9762936 211.785673,74.2808166 211.785673,73.4697204 C211.785673,72.9118624 211.886549,72.397136 212.088305,71.9255258 C212.29006,71.4539155 212.582601,71.0896617 212.965937,70.8327535 C213.349273,70.5758452 213.799548,70.4473929 214.316775,70.4473929 C215.006413,70.4473929 215.574988,70.7263178 216.022518,71.2841758 L216.022518,70.5795165 L216.935916,70.5795165 L216.935916,75.6332444 C216.935916,76.5434338 216.843293,77.1884474 216.658045,77.5683047 C216.472797,77.948162 216.179339,78.2481896 215.777662,78.4683967 C215.375985,78.6886039 214.881691,78.7987058 214.294766,78.7987058 C213.597792,78.7987058 213.034719,78.6418105 212.60553,78.3280154 C212.176341,78.0142203 211.969086,77.5416996 211.983759,76.9104392 Z M212.803616,73.3981534 C212.803616,74.1652082 212.955848,74.7248929 213.260315,75.0772242 C213.564783,75.4295556 213.946278,75.6057187 214.404814,75.6057187 C214.859681,75.6057187 215.241176,75.4304731 215.549312,75.0799768 C215.857448,74.7294805 216.011514,74.1798885 216.011514,73.4311843 C216.011514,72.7155112 215.852863,72.1760119 215.535556,71.8126702 C215.21825,71.4493285 214.835837,71.2676603 214.388307,71.2676603 C213.948113,71.2676603 213.573953,71.4465759 213.265818,71.8044125 C212.957682,72.162249 212.803616,72.6934907 212.803616,73.3981534 Z M217.689745,76.5636148 L220.028263,68.2178071 L220.820608,68.2178071 L218.487592,76.5636148 L217.689745,76.5636148 Z M225.354583,76.425986 L225.354583,75.6882959 C224.984086,76.2681746 224.439355,76.5581096 223.720371,76.5581096 C223.254499,76.5581096 222.826234,76.4296574 222.435562,76.1727491 C222.044889,75.9158408 221.742261,75.5570921 221.527666,75.0964923 C221.313072,74.6358924 221.205776,74.1064857 221.205776,73.5082564 C221.205776,72.9247076 221.302984,72.395301 221.497403,71.9200206 C221.691822,71.4447403 221.983446,71.0804865 222.372284,70.8272483 C222.761122,70.5740101 223.195807,70.4473929 223.676352,70.4473929 C224.028507,70.4473929 224.342141,70.5217117 224.617262,70.6703515 C224.892383,70.8189913 225.116145,71.0125872 225.288554,71.2511449 L225.288554,68.3554359 L226.273483,68.3554359 L226.273483,76.425986 L225.354583,76.425986 Z M222.223719,73.5082564 C222.223719,74.2569606 222.381453,74.8166453 222.696925,75.1873272 C223.012398,75.5580092 223.384723,75.7433474 223.813912,75.7433474 C224.246769,75.7433474 224.614509,75.5662668 224.917142,75.2121004 C225.219776,74.857934 225.37109,74.3175171 225.37109,73.5908337 C225.37109,72.7907479 225.217025,72.2035377 224.908889,71.8291856 C224.600753,71.4548335 224.221092,71.2676603 223.769893,71.2676603 C223.329699,71.2676603 222.961959,71.4474934 222.666662,71.807165 C222.371365,72.1668366 222.223719,72.7338614 222.223719,73.5082564 Z M227.808652,76.425986 L227.808652,68.3554359 L228.799083,68.3554359 L228.799083,76.425986 L227.808652,76.425986 Z" id="mg/dl" fill="#4A4A4A"></path>
                            <path d="M202.77825,134.745476 L202.77825,128.899006 L203.664136,128.899006 L203.664136,129.719273 C203.84755,129.433004 204.091487,129.202708 204.395954,129.028377 C204.700422,128.854046 205.047069,128.766882 205.435907,128.766882 C205.868765,128.766882 206.223666,128.856799 206.500621,129.036635 C206.777576,129.216471 206.972909,129.46787 207.086626,129.79084 C207.54883,129.108198 208.150419,128.766882 208.891412,128.766882 C209.471001,128.766882 209.916691,128.927448 210.228495,129.248583 C210.540299,129.569718 210.696198,130.06426 210.696198,130.732221 L210.696198,134.745476 L209.711269,134.745476 L209.711269,131.06253 C209.711269,130.666157 209.679172,130.38081 209.614977,130.206479 C209.550783,130.032149 209.434316,129.891769 209.265575,129.785335 C209.096834,129.678902 208.89875,129.625686 208.671316,129.625686 C208.260469,129.625686 207.919324,129.762396 207.647871,130.03582 C207.376418,130.309243 207.240693,130.746898 207.240693,131.348798 L207.240693,134.745476 L206.250262,134.745476 L206.250262,130.946922 C206.250262,130.506508 206.169561,130.176202 206.008157,129.955995 C205.846752,129.735788 205.58264,129.625686 205.215811,129.625686 C204.937022,129.625686 204.679329,129.699087 204.442725,129.845892 C204.20612,129.992697 204.034631,130.207395 203.928251,130.489994 C203.82187,130.772594 203.768681,131.179971 203.768681,131.712138 L203.768681,134.745476 L202.77825,134.745476 Z M212.473473,134.745476 L212.473473,126.674925 L213.540937,126.674925 L213.540937,134.745476 L212.473473,134.745476 Z M220.716063,126.674925 L221.783528,126.674925 L221.783528,131.337788 C221.783528,132.148884 221.691822,132.79298 221.508408,133.270095 C221.324994,133.747211 220.993936,134.13532 220.515225,134.434435 C220.036514,134.733549 219.40833,134.883104 218.630654,134.883104 C217.874988,134.883104 217.256892,134.752817 216.776347,134.492239 C216.295802,134.23166 215.952822,133.854561 215.747399,133.36093 C215.541975,132.867299 215.439264,132.192925 215.439264,131.337788 L215.439264,126.674925 L216.506729,126.674925 L216.506729,131.332282 C216.506729,132.033275 216.57184,132.549836 216.702064,132.881982 C216.832288,133.214128 217.05605,133.470115 217.373357,133.649951 C217.690663,133.829786 218.078578,133.919703 218.537114,133.919703 C219.322126,133.919703 219.881531,133.741705 220.215345,133.385703 C220.549158,133.029702 220.716063,132.345235 220.716063,131.332282 L220.716063,126.674925 Z M222.691423,134.883104 L225.029942,126.537297 L225.822287,126.537297 L223.489271,134.883104 L222.691423,134.883104 Z M226.647646,134.745476 L226.647646,126.674925 L227.715111,126.674925 L227.715111,133.793085 L231.687841,133.793085 L231.687841,134.745476 L226.647646,134.745476 Z" id="mIU/L" fill="#4A4A4A"></path>
                            <path d="M6.03691512,107.599043 L260.393546,107.599043" id="Line" stroke="#ECECEC" stroke-linecap="square"></path>
                            <polygon id="Shape" points="10.4639862 23.2745476 42.6608669 23.2745476 42.6608669 55.4875406 10.4639862 55.4875406"></polygon>
                            <polygon id="Shape" fill="#F5A623" fill-rule="nonzero" points="26.2941192 39.9913637 34.584816 44.9977997 32.3846958 35.5620771 39.7094862 29.2134331 30.0638373 28.3946862 26.2941192 19.4958469 22.5244011 28.3946862 12.8787523 29.2134331 20.2035426 35.5620771 18.0034224 44.9977997"></polygon>
                            <g id="Group-11" transform="translate(239.061839, 58.708840)">
                                <ellipse id="Oval-10-Copy" stroke="#DBDBDB" fill="#FFFFFF" cx="10.8664472" cy="10.8718851" rx="10.8664472" ry="10.8718851"></ellipse>
                                <polygon id="+-copy" fill="#4A90E2" points="10.020235 15.8691691 10.020235 12.3979592 6.52480418 12.3979592 6.52480418 10.0018222 10.020235 10.0018222 10.020235 6.53061224 12.3505222 6.53061224 12.3505222 10.0018222 15.8550557 10.0018222 15.8550557 12.3979592 12.3505222 12.3979592 12.3505222 15.8691691"></polygon>
                            </g>
                            <g id="Group-11-Copy" transform="translate(239.061839, 117.028329)">
                                <g id="Group-7">
                                    <ellipse id="Oval-10-Copy" stroke="#DBDBDB" fill="#FFFFFF" cx="10.8664472" cy="10.8718851" rx="10.8664472" ry="10.8718851"></ellipse>
                                    <polygon id="+" fill="#4A90E2" points="10.020235 15.8691691 10.020235 12.3979592 6.52480418 12.3979592 6.52480418 10.0018222 10.020235 10.0018222 10.020235 6.53061224 12.3505222 6.53061224 12.3505222 10.0018222 15.8550557 10.0018222 15.8550557 12.3979592 12.3505222 12.3979592 12.3505222 15.8691691"></polygon>
                                </g>
                            </g>
                        </g>
                        <ellipse id="Oval-4" fill="#7ED321" cx="102.345445" cy="74.4981572" rx="6.03691512" ry="6.03993619"></ellipse>
                        <ellipse id="Oval-4-Copy" fill="#F5A623" cx="62.0993443" cy="132.012322" rx="6.03691512" ry="6.03993619"></ellipse>
                    </g>
                </g>
            </g>
        </g>
    </g>
</svg>