<?xml version="1.0" encoding="UTF-8"?>
<svg width="45px" height="51px" viewBox="0 0 45 51" version="1.1" xmlns="http://www.w3.org/2000/svg" xmlns:xlink="http://www.w3.org/1999/xlink">
    <!-- Generator: Sketch 53.2 (72643) - https://sketchapp.com -->
    <title>pdf-report</title>
    <desc>Created with Sketch.</desc>
    <g id="Page-1" stroke="none" stroke-width="1" fill="none" fill-rule="evenodd">
        <g id="z"></g>
        <g id="Artboard" transform="translate(-779.000000, -217.000000)">
            <g id="pdf-report" transform="translate(780.000000, 218.000000)">
                <path d="M36.9264885,49 L6,49 C5.44771525,49 5,48.5522847 5,48 L5,6" id="Rectangle" stroke="#ABB3BB" stroke-width="2" stroke-linecap="round"></path>
                <path d="M11,0 L31.7937012,0 L43,10.9016113 L43,43 C43,43.5522847 42.5522847,44 42,44 L11,44 C10.4477153,44 10,43.5522847 10,43 L10,1 C10,0.44771525 10.4477153,1.01453063e-16 11,0 Z" id="Rectangle" stroke="#ABB3BB" stroke-width="2"></path>
                <path d="M42.852977,11.852977 L32,11.852977 C31.4477153,11.852977 31,11.4052617 31,10.852977 L31,-1.67865721e-13" id="Rectangle" stroke="#ABB3BB" stroke-width="2"></path>
                <rect id="Rectangle" stroke="#ABB3BB" stroke-width="2" fill="#FFFFFF" stroke-linecap="round" x="0" y="18" width="31" height="17" rx="1"></rect>
                <path d="M7.6,26.04375 C7.95833333,26.04375 8.25,25.9333333 8.46875,25.7166667 C8.68958333,25.5 8.8,25.1625 8.8,24.7041667 C8.8,24.2541667 8.70416667,23.9125 8.5125,23.6791667 C8.32083333,23.4479167 8,23.3291667 7.55,23.3291667 L6.8,23.3291667 L6.8,26.04375 L7.6,26.04375 Z M8.15,22.0020833 C8.60833333,22.0020833 8.99166667,22.0791667 9.30625,22.2333333 C9.62083333,22.3875 9.87083333,22.5895833 10.0625,22.8395833 C10.2541667,23.0895833 10.3916667,23.375 10.475,23.6958333 C10.55625,24.0145833 10.6,24.34375 10.6,24.6770833 C10.6,25.1354167 10.53125,25.5354167 10.39375,25.8770833 C10.25625,26.21875 10.0645833,26.4979167 9.81875,26.7125 C9.57291667,26.9291667 9.275,27.09375 8.925,27.2 C8.575,27.30625 8.1875,27.3645833 7.7625,27.3645833 L6.8,27.3645833 L6.8,30.9270833 L5,30.9270833 L5,22.0020833 L8.15,22.0020833 L8.15,22.0020833 Z" id="Fill-4" fill="#ABB3BB"></path>
                <path d="M15.425,29.6041667 C15.7416667,29.6041667 15.9958333,29.55 16.1875,29.4416667 C16.3791667,29.3333333 16.53125,29.1541667 16.64375,28.9041667 C16.7583333,28.6541667 16.8333333,28.325 16.86875,27.9145833 C16.90625,27.5083333 16.925,27 16.925,26.3916667 C16.925,25.8833333 16.90625,25.4375 16.875,25.0520833 C16.8416667,24.66875 16.7729167,24.35 16.66875,24.0958333 C16.5625,23.8416667 16.4104167,23.65 16.2041667,23.5229167 C16,23.39375 15.7270833,23.3270833 15.3854167,23.3270833 L14.625,23.3270833 L14.625,29.6041667 L15.425,29.6041667 Z M15.775,22 C16.4020833,22 16.9041667,22.1041667 17.2895833,22.3083333 C17.6729167,22.5125 17.9708333,22.8020833 18.1833333,23.1833333 C18.3979167,23.5625 18.5395833,24.0166667 18.6145833,24.5520833 C18.6895833,25.0854167 18.7270833,25.68125 18.7270833,26.3375 C18.7270833,27.1208333 18.68125,27.8020833 18.5854167,28.38125 C18.4895833,28.9583333 18.325,29.4375 18.0916667,29.8125 C17.8583333,30.1895833 17.5458333,30.4666667 17.1541667,30.65 C16.7625,30.8333333 16.2666667,30.925 15.6666667,30.925 L12.825,30.925 L12.825,22 L15.775,22 L15.775,22 Z" id="Fill-5" fill="#ABB3BB"></path>
                <polyline id="Fill-6" fill="#ABB3BB" points="26.15 22.0020833 26.15 23.4770833 22.9625 23.4770833 22.9625 25.5770833 25.9625 25.5770833 25.9625 27.0520833 22.9625 27.0520833 22.9625 30.9270833 21.1625 30.9270833 21.1625 22.0020833 26.15 22.0020833"></polyline>
            </g>
        </g>
    </g>
</svg>